<?xml version="1.0" encoding="UTF-8" standalone="no"?>
<!DOCTYPE svg PUBLIC "-//W3C//DTD SVG 1.1//EN"
 "http://www.w3.org/Graphics/SVG/1.1/DTD/svg11.dtd">
<!-- Generated by graphviz version 2.42.4 (0)
 -->
<!-- Title: Zmogus::getVardas Pages: 1 -->
<!--zoomable 767 -->

<svg id="main" version="1.1" xmlns="http://www.w3.org/2000/svg" xmlns:xlink="http://www.w3.org/1999/xlink" xml:space="preserve" onload="init(evt)">
<style type="text/css"><![CDATA[
.node, .edge {opacity: 0.7;}
.node.selected, .edge.selected {opacity: 1;}
.edge:hover path { stroke: red; }
.edge:hover polygon { stroke: red; fill: red; }
]]></style>

<defs>
  <circle id="rim" cx="0" cy="0" r="7"/>
  <circle id="rim2" cx="0" cy="0" r="3.5"/>
  <g id="zoomPlus">
    <use xlink:href="#rim" fill="#404040"><set attributeName="fill" to="#808080" begin="zoomplus.mouseover" end="zoomplus.mouseout"/></use>
    <path d="M-4,0h8M0,-4v8" fill="none" stroke="white" stroke-width="1.5" pointer-events="none"/>
  </g>
  <g id="zoomMin">
    <use xlink:href="#rim" fill="#404040"><set attributeName="fill" to="#808080" begin="zoomminus.mouseover" end="zoomminus.mouseout"/></use>
    <path d="M-4,0h8" fill="none" stroke="white" stroke-width="1.5" pointer-events="none"/>
  </g>
  <g id="arrowUp" transform="translate(30 24)">
    <use xlink:href="#rim"/>
    <path pointer-events="none" fill="none" stroke="white" stroke-width="1.5" d="M0,-3.0v7 M-2.5,-0.5L0,-3.0L2.5,-0.5"/>
  </g>
  <g id="arrowRight" transform="rotate(90) translate(36 -43)">
    <use xlink:href="#rim"/>
    <path pointer-events="none" fill="none" stroke="white" stroke-width="1.5" d="M0,-3.0v7 M-2.5,-0.5L0,-3.0L2.5,-0.5"/>
  </g>
  <g id="arrowDown" transform="rotate(180) translate(-30 -48)">
    <use xlink:href="#rim"/>
    <path pointer-events="none" fill="none" stroke="white" stroke-width="1.5" d="M0,-3.0v7 M-2.5,-0.5L0,-3.0L2.5,-0.5"/>
  </g>
  <g id="arrowLeft" transform="rotate(270) translate(-36 17)">
    <use xlink:href="#rim"/>
    <path pointer-events="none" fill="none" stroke="white" stroke-width="1.5" d="M0,-3.0v7 M-2.5,-0.5L0,-3.0L2.5,-0.5"/>
  </g>
  <g id="resetDef">
    <use xlink:href="#rim2" fill="#404040"><set attributeName="fill" to="#808080" begin="reset.mouseover" end="reset.mouseout"/></use>
  </g>
</defs>
<script type="application/ecmascript">
var viewWidth = 726;
var viewHeight = 767;
var sectionId = 'dynsection-3';
</script>
<script type="application/ecmascript" xlink:href="svg.min.js"/>
<svg id="graph" class="graph">
<g id="viewport">
<title>Zmogus::getVardas</title>
<!-- Node1 -->
<g id="Node000001" class="node">
<title>Node1</title>
<g id="a_Node000001"><a xlink:title=" ">
<polygon fill="#999999" stroke="#666666" points="718,-389 607,-389 607,-370 718,-370 718,-389"/>
<text text-anchor="middle" x="662.5" y="-377" font-family="Helvetica,sans-Serif" font-size="10.00">Zmogus::getVardas</text>
</a>
</g>
</g>
<!-- Node2 -->
<g id="Node000002" class="node">
<title>Node2</title>
<g id="a_Node000002"><a xlink:href="classStudentas.html#a82a044563f7e43f694ae771b27a6e89c" target="_top" xlink:title="Lyginimo funkcija rikiavimui pagal vardą.">
<polygon fill="white" stroke="#666666" points="568,-759 400,-759 400,-740 568,-740 568,-759"/>
<text text-anchor="middle" x="484" y="-747" font-family="Helvetica,sans-Serif" font-size="10.00">Studentas::comparePagalVarda</text>
</a>
</g>
</g>
<!-- Node1&#45;&gt;Node2 -->
<g id="edge1_Node000001_Node000002" class="edge">
<title>Node1&#45;&gt;Node2</title>
<g id="a_edge1_Node000001_Node000002"><a xlink:title=" ">
<path fill="none" stroke="#63b8ff" d="M659.17,-399.14C650.83,-466.19 620.27,-684.42 571,-731.5 567.58,-734.77 563.73,-737.51 559.6,-739.8"/>
<polygon fill="#63b8ff" stroke="#63b8ff" points="662.66,-399.44 660.4,-389.09 655.71,-398.59 662.66,-399.44"/>
</a>
</g>
</g>
<!-- Node3 -->
<g id="Node000003" class="node">
<title>Node3</title>
<g id="a_Node000003"><a xlink:href="spausdinam_8cpp.html#aba4d2eddda9e028acf1b8c2faba126d2" target="_top" xlink:title="Rikiuoja studentus pagal nurodytą kriterijų (int kodas).">
<polygon fill="white" stroke="#666666" points="539.5,-722 428.5,-722 428.5,-703 539.5,-703 539.5,-722"/>
<text text-anchor="middle" x="484" y="-710" font-family="Helvetica,sans-Serif" font-size="10.00">surikiuotiStudentus</text>
</a>
</g>
</g>
<!-- Node1&#45;&gt;Node3 -->
<g id="edge2_Node000001_Node000003" class="edge">
<title>Node1&#45;&gt;Node3</title>
<g id="a_edge2_Node000001_Node000003"><a xlink:title=" ">
<path fill="none" stroke="#63b8ff" d="M662.28,-399.54C663.29,-455.34 657.98,-613.69 571,-694.5 562.4,-702.49 551.19,-707.31 539.72,-710.13"/>
<polygon fill="#63b8ff" stroke="#63b8ff" points="665.77,-399.16 662,-389.26 658.78,-399.35 665.77,-399.16"/>
</a>
</g>
</g>
<!-- Node8 -->
<g id="Node000008" class="node">
<title>Node8</title>
<g id="a_Node000008"><a xlink:href="unit__tests_8cpp.html#a91759e7784a1e58d17448a375cdeeb5c" target="_top" xlink:title="Tikrina virtualų dispatch per bazinės klasės rodyklę.">
<polygon fill="white" stroke="#666666" points="504.5,-685 463.5,-685 463.5,-666 504.5,-666 504.5,-685"/>
<text text-anchor="middle" x="484" y="-673" font-family="Helvetica,sans-Serif" font-size="10.00">TEST</text>
</a>
</g>
</g>
<!-- Node1&#45;&gt;Node8 -->
<g id="edge8_Node000001_Node000008" class="edge">
<title>Node1&#45;&gt;Node8</title>
<g id="a_edge8_Node000001_Node000008"><a xlink:title=" ">
<path fill="none" stroke="#63b8ff" d="M661.4,-399.24C660,-450.31 648.8,-587.7 571,-657.5 552.83,-673.8 523.78,-676.75 504.55,-676.68"/>
<polygon fill="#63b8ff" stroke="#63b8ff" points="664.9,-399.25 661.57,-389.2 657.9,-399.13 664.9,-399.25"/>
</a>
</g>
</g>
<!-- Node9 -->
<g id="Node000009" class="node">
<title>Node9</title>
<g id="a_Node000009"><a xlink:href="unit__tests_8cpp.html#a754a81f6be0f1a41f41a3a19ffc085f8" target="_top" xlink:title="Tikrina operator&gt;&gt; su vienu studentu.">
<polygon fill="white" stroke="#666666" points="504.5,-648 463.5,-648 463.5,-629 504.5,-629 504.5,-648"/>
<text text-anchor="middle" x="484" y="-636" font-family="Helvetica,sans-Serif" font-size="10.00">TEST</text>
</a>
</g>
</g>
<!-- Node1&#45;&gt;Node9 -->
<g id="edge9_Node000001_Node000009" class="edge">
<title>Node1&#45;&gt;Node9</title>
<g id="a_edge9_Node000001_Node000009"><a xlink:title=" ">
<path fill="none" stroke="#63b8ff" d="M660.26,-399.38C656.24,-445.78 639.49,-561.76 571,-620.5 552.59,-636.29 523.87,-639.41 504.75,-639.51"/>
<polygon fill="#63b8ff" stroke="#63b8ff" points="663.77,-399.39 661.03,-389.15 656.79,-398.86 663.77,-399.39"/>
</a>
</g>
</g>
<!-- Node10 -->
<g id="Node000010" class="node">
<title>Node10</title>
<g id="a_Node000010"><a xlink:href="unit__tests_8cpp.html#ab94f9344bd4840ec79558e56791b2b4c" target="_top" xlink:title="Tikrina, kad numatytasis konstruktorius inicializuoja tuščius laukus.">
<polygon fill="white" stroke="#666666" points="504.5,-611 463.5,-611 463.5,-592 504.5,-592 504.5,-611"/>
<text text-anchor="middle" x="484" y="-599" font-family="Helvetica,sans-Serif" font-size="10.00">TEST</text>
</a>
</g>
</g>
<!-- Node1&#45;&gt;Node10 -->
<g id="edge10_Node000001_Node000010" class="edge">
<title>Node1&#45;&gt;Node10</title>
<g id="a_edge10_Node000001_Node000010"><a xlink:title=" ">
<path fill="none" stroke="#63b8ff" d="M658.8,-399.09C652.05,-440.16 630.49,-535.41 571,-583.5 552.14,-598.75 523.53,-602 504.56,-602.27"/>
<polygon fill="#63b8ff" stroke="#63b8ff" points="662.29,-399.44 660.33,-389.03 655.37,-398.39 662.29,-399.44"/>
</a>
</g>
</g>
<!-- Node11 -->
<g id="Node000011" class="node">
<title>Node11</title>
<g id="a_Node000011"><a xlink:href="unit__tests_8cpp.html#a6b9f6da88dedebab8c8524e76f5191e1" target="_top" xlink:title="Tikrina, kad kopijavimo konstruktorius sukuria gilią kopiją.">
<polygon fill="white" stroke="#666666" points="504.5,-574 463.5,-574 463.5,-555 504.5,-555 504.5,-574"/>
<text text-anchor="middle" x="484" y="-562" font-family="Helvetica,sans-Serif" font-size="10.00">TEST</text>
</a>
</g>
</g>
<!-- Node1&#45;&gt;Node11 -->
<g id="edge11_Node000001_Node000011" class="edge">
<title>Node1&#45;&gt;Node11</title>
<g id="a_edge11_Node000001_Node000011"><a xlink:title=" ">
<path fill="none" stroke="#63b8ff" d="M656.64,-399.39C646.87,-434.9 621.35,-508.99 571,-546.5 551.67,-560.9 523.44,-564.38 504.66,-564.94"/>
<polygon fill="#63b8ff" stroke="#63b8ff" points="660.13,-399.87 659.27,-389.31 653.35,-398.11 660.13,-399.87"/>
</a>
</g>
</g>
<!-- Node12 -->
<g id="Node000012" class="node">
<title>Node12</title>
<g id="a_Node000012"><a xlink:href="unit__tests_8cpp.html#aa7de934bc88c4d34b554aa0ceaede9ec" target="_top" xlink:title="Tikrina, kad keičiant kopiją originalas nesikeičia (gili kopija).">
<polygon fill="white" stroke="#666666" points="504.5,-537 463.5,-537 463.5,-518 504.5,-518 504.5,-537"/>
<text text-anchor="middle" x="484" y="-525" font-family="Helvetica,sans-Serif" font-size="10.00">TEST</text>
</a>
</g>
</g>
<!-- Node1&#45;&gt;Node12 -->
<g id="edge12_Node000001_Node000012" class="edge">
<title>Node1&#45;&gt;Node12</title>
<g id="a_edge12_Node000001_Node000012"><a xlink:title=" ">
<path fill="none" stroke="#63b8ff" d="M653.77,-398.61C641.05,-427.48 612.87,-481.8 571,-509.5 551.03,-522.71 523.21,-526.49 504.68,-527.43"/>
<polygon fill="#63b8ff" stroke="#63b8ff" points="657.07,-399.79 657.75,-389.22 650.63,-397.06 657.07,-399.79"/>
</a>
</g>
</g>
<!-- Node13 -->
<g id="Node000013" class="node">
<title>Node13</title>
<g id="a_Node000013"><a xlink:href="unit__tests_8cpp.html#a99f7a68bbac8a8ba8ea527dc2d98437d" target="_top" xlink:title="Tikrina kopijavimo priskyrimo operatorių.">
<polygon fill="white" stroke="#666666" points="504.5,-500 463.5,-500 463.5,-481 504.5,-481 504.5,-500"/>
<text text-anchor="middle" x="484" y="-488" font-family="Helvetica,sans-Serif" font-size="10.00">TEST</text>
</a>
</g>
</g>
<!-- Node1&#45;&gt;Node13 -->
<g id="edge13_Node000001_Node000013" class="edge">
<title>Node1&#45;&gt;Node13</title>
<g id="a_edge13_Node000001_Node000013"><a xlink:title=" ">
<path fill="none" stroke="#63b8ff" d="M649.26,-397.45C633.67,-418.83 604.68,-453.98 571,-472.5 550.15,-483.96 522.77,-488.14 504.57,-489.65"/>
<polygon fill="#63b8ff" stroke="#63b8ff" points="652.16,-399.4 655.09,-389.22 646.45,-395.35 652.16,-399.4"/>
</a>
</g>
</g>
<!-- Node14 -->
<g id="Node000014" class="node">
<title>Node14</title>
<g id="a_Node000014"><a xlink:href="unit__tests_8cpp.html#ab305d8c8d3775f197223470035d8c765" target="_top" xlink:title="Tikrina, kad savipriskyrimas yra saugus (nekelia crash).">
<polygon fill="white" stroke="#666666" points="504.5,-463 463.5,-463 463.5,-444 504.5,-444 504.5,-463"/>
<text text-anchor="middle" x="484" y="-451" font-family="Helvetica,sans-Serif" font-size="10.00">TEST</text>
</a>
</g>
</g>
<!-- Node1&#45;&gt;Node14 -->
<g id="edge14_Node000001_Node000014" class="edge">
<title>Node1&#45;&gt;Node14</title>
<g id="a_edge14_Node000001_Node000014"><a xlink:title=" ">
<path fill="none" stroke="#63b8ff" d="M640.69,-395.31C623.04,-407.98 596.57,-425.28 571,-435.5 549.19,-444.22 522.5,-448.96 504.69,-451.36"/>
<polygon fill="#63b8ff" stroke="#63b8ff" points="643.08,-397.9 649.07,-389.17 638.94,-392.26 643.08,-397.9"/>
</a>
</g>
</g>
<!-- Node15 -->
<g id="Node000015" class="node">
<title>Node15</title>
<g id="a_Node000015"><a xlink:href="unit__tests_8cpp.html#a9a318c8fa767bc8a3cb18a1f031b13a0" target="_top" xlink:title="Tikrina, kad perkėlimo konstruktorius teisingai perkelia duomenis.">
<polygon fill="white" stroke="#666666" points="504.5,-426 463.5,-426 463.5,-407 504.5,-407 504.5,-426"/>
<text text-anchor="middle" x="484" y="-414" font-family="Helvetica,sans-Serif" font-size="10.00">TEST</text>
</a>
</g>
</g>
<!-- Node1&#45;&gt;Node15 -->
<g id="edge15_Node000001_Node000015" class="edge">
<title>Node1&#45;&gt;Node15</title>
<g id="a_edge15_Node000001_Node000015"><a xlink:title=" ">
<path fill="none" stroke="#63b8ff" d="M605.95,-391.17C594.4,-393.59 582.3,-396.13 571,-398.5 548.31,-403.26 522.24,-408.71 504.81,-412.36"/>
<polygon fill="#63b8ff" stroke="#63b8ff" points="606.86,-394.55 615.93,-389.07 605.42,-387.7 606.86,-394.55"/>
</a>
</g>
</g>
<!-- Node16 -->
<g id="Node000016" class="node">
<title>Node16</title>
<g id="a_Node000016"><a xlink:href="unit__tests_8cpp.html#a3c79d26e97519b6203a87793fba89b9b" target="_top" xlink:title="Tikrina perkėlimo priskyrimo operatorių.">
<polygon fill="white" stroke="#666666" points="504.5,-389 463.5,-389 463.5,-370 504.5,-370 504.5,-389"/>
<text text-anchor="middle" x="484" y="-377" font-family="Helvetica,sans-Serif" font-size="10.00">TEST</text>
</a>
</g>
</g>
<!-- Node1&#45;&gt;Node16 -->
<g id="edge16_Node000001_Node000016" class="edge">
<title>Node1&#45;&gt;Node16</title>
<g id="a_edge16_Node000001_Node000016"><a xlink:title=" ">
<path fill="none" stroke="#63b8ff" d="M596.28,-379.5C563.86,-379.5 526.98,-379.5 504.87,-379.5"/>
<polygon fill="#63b8ff" stroke="#63b8ff" points="596.62,-383 606.62,-379.5 596.62,-376 596.62,-383"/>
</a>
</g>
</g>
<!-- Node17 -->
<g id="Node000017" class="node">
<title>Node17</title>
<g id="a_Node000017"><a xlink:href="unit__tests_8cpp.html#aaf665588271cf44b3c89ee52f3f50d8a" target="_top" xlink:title="Tikrina, kad setVardas/setPavarde/setEgzaminas veikia teisingai.">
<polygon fill="white" stroke="#666666" points="504.5,-352 463.5,-352 463.5,-333 504.5,-333 504.5,-352"/>
<text text-anchor="middle" x="484" y="-340" font-family="Helvetica,sans-Serif" font-size="10.00">TEST</text>
</a>
</g>
</g>
<!-- Node1&#45;&gt;Node17 -->
<g id="edge17_Node000001_Node000017" class="edge">
<title>Node1&#45;&gt;Node17</title>
<g id="a_edge17_Node000001_Node000017"><a xlink:title=" ">
<path fill="none" stroke="#63b8ff" d="M606.08,-367.88C571.56,-360.65 529.23,-351.77 504.86,-346.66"/>
<polygon fill="#63b8ff" stroke="#63b8ff" points="605.54,-371.35 616.05,-369.97 606.98,-364.49 605.54,-371.35"/>
</a>
</g>
</g>
<!-- Node18 -->
<g id="Node000018" class="node">
<title>Node18</title>
<g id="a_Node000018"><a xlink:href="unit__tests_8cpp.html#a71af12b4bfd17be4f4e33e55fa857042" target="_top" xlink:title="Tikrina srautinį konstruktorių su standartine eilute.">
<polygon fill="white" stroke="#666666" points="504.5,-315 463.5,-315 463.5,-296 504.5,-296 504.5,-315"/>
<text text-anchor="middle" x="484" y="-303" font-family="Helvetica,sans-Serif" font-size="10.00">TEST</text>
</a>
</g>
</g>
<!-- Node1&#45;&gt;Node18 -->
<g id="edge18_Node000001_Node000018" class="edge">
<title>Node1&#45;&gt;Node18</title>
<g id="a_edge18_Node000001_Node000018"><a xlink:title=" ">
<path fill="none" stroke="#63b8ff" d="M640.31,-363.85C622.62,-351.48 596.28,-334.65 571,-324.5 549.15,-315.73 522.46,-310.63 504.67,-307.97"/>
<polygon fill="#63b8ff" stroke="#63b8ff" points="638.56,-366.9 648.73,-369.85 642.62,-361.2 638.56,-366.9"/>
</a>
</g>
</g>
<!-- Node19 -->
<g id="Node000019" class="node">
<title>Node19</title>
<g id="a_Node000019"><a xlink:href="testas_8cpp.html#a62345eaf1f8a3d065214eec00726417b" target="_top" xlink:title=" ">
<polygon fill="white" stroke="#666666" points="542.5,-278 425.5,-278 425.5,-259 542.5,-259 542.5,-278"/>
<text text-anchor="middle" x="484" y="-266" font-family="Helvetica,sans-Serif" font-size="10.00">testuotiAbstraktuma</text>
</a>
</g>
</g>
<!-- Node1&#45;&gt;Node19 -->
<g id="edge19_Node000001_Node000019" class="edge">
<title>Node1&#45;&gt;Node19</title>
<g id="a_edge19_Node000001_Node000019"><a xlink:title=" ">
<path fill="none" stroke="#63b8ff" d="M649.18,-361.81C633.51,-340.72 604.45,-306.01 571,-287.5 562.3,-282.69 552.48,-279.09 542.66,-276.41"/>
<polygon fill="#63b8ff" stroke="#63b8ff" points="646.35,-363.87 655.04,-369.92 652.02,-359.77 646.35,-363.87"/>
</a>
</g>
</g>
<!-- Node20 -->
<g id="Node000020" class="node">
<title>Node20</title>
<g id="a_Node000020"><a xlink:href="testas_8cpp.html#af0795b8e97d908a2f00597677222fac2" target="_top" xlink:title=" ">
<polygon fill="white" stroke="#666666" points="561.5,-241 406.5,-241 406.5,-222 561.5,-222 561.5,-241"/>
<text text-anchor="middle" x="484" y="-229" font-family="Helvetica,sans-Serif" font-size="10.00">testuotiDefaultKonstruktoriu</text>
</a>
</g>
</g>
<!-- Node1&#45;&gt;Node20 -->
<g id="edge20_Node000001_Node000020" class="edge">
<title>Node1&#45;&gt;Node20</title>
<g id="a_edge20_Node000001_Node000020"><a xlink:title=" ">
<path fill="none" stroke="#63b8ff" d="M653.69,-360.59C640.87,-332.01 612.55,-278.22 571,-250.5 565.15,-246.6 558.62,-243.48 551.86,-241"/>
<polygon fill="#63b8ff" stroke="#63b8ff" points="650.53,-362.1 657.71,-369.89 656.95,-359.32 650.53,-362.1"/>
</a>
</g>
</g>
<!-- Node22 -->
<g id="Node000022" class="node">
<title>Node22</title>
<g id="a_Node000022"><a xlink:href="testas_8cpp.html#a029c23e8b1279f64678ff0d16e3d7d40" target="_top" xlink:title=" ">
<polygon fill="white" stroke="#666666" points="555.5,-204 412.5,-204 412.5,-185 555.5,-185 555.5,-204"/>
<text text-anchor="middle" x="484" y="-192" font-family="Helvetica,sans-Serif" font-size="10.00">testuotiIstreamOperatoriu</text>
</a>
</g>
</g>
<!-- Node1&#45;&gt;Node22 -->
<g id="edge22_Node000001_Node000022" class="edge">
<title>Node1&#45;&gt;Node22</title>
<g id="a_edge22_Node000001_Node000022"><a xlink:title=" ">
<path fill="none" stroke="#63b8ff" d="M656.56,-359.78C646.66,-324.57 620.96,-251.05 571,-213.5 565.87,-209.64 560.1,-206.54 554.05,-204.04"/>
<polygon fill="#63b8ff" stroke="#63b8ff" points="653.27,-361.01 659.23,-369.77 660.03,-359.21 653.27,-361.01"/>
</a>
</g>
</g>
<!-- Node23 -->
<g id="Node000023" class="node">
<title>Node23</title>
<g id="a_Node000023"><a xlink:href="testas_8cpp.html#a8a5a7da36716b22c613e0cfa68c42e1c" target="_top" xlink:title=" ">
<polygon fill="white" stroke="#666666" points="571,-167 397,-167 397,-148 571,-148 571,-167"/>
<text text-anchor="middle" x="484" y="-155" font-family="Helvetica,sans-Serif" font-size="10.00">testuotiKopijavimoKonstruktoriu</text>
</a>
</g>
</g>
<!-- Node1&#45;&gt;Node23 -->
<g id="edge24_Node000001_Node000023" class="edge">
<title>Node1&#45;&gt;Node23</title>
<g id="a_edge24_Node000001_Node000023"><a xlink:title=" ">
<path fill="none" stroke="#63b8ff" d="M658.63,-359.48C651.63,-318.41 629.75,-224.44 571,-176.5 566.38,-172.73 561.17,-169.67 555.66,-167.18"/>
<polygon fill="#63b8ff" stroke="#63b8ff" points="655.21,-360.25 660.23,-369.58 662.12,-359.16 655.21,-360.25"/>
</a>
</g>
</g>
<!-- Node24 -->
<g id="Node000024" class="node">
<title>Node24</title>
<g id="a_Node000024"><a xlink:href="testas_8cpp.html#a2004eb505d4b8f7ced0e73394dfb8f4f" target="_top" xlink:title=" ">
<polygon fill="white" stroke="#666666" points="564.5,-130 403.5,-130 403.5,-111 564.5,-111 564.5,-130"/>
<text text-anchor="middle" x="484" y="-118" font-family="Helvetica,sans-Serif" font-size="10.00">testuotiKopijavimoPriskyrima</text>
</a>
</g>
</g>
<!-- Node1&#45;&gt;Node24 -->
<g id="edge26_Node000001_Node000024" class="edge">
<title>Node1&#45;&gt;Node24</title>
<g id="a_edge26_Node000001_Node000024"><a xlink:title=" ">
<path fill="none" stroke="#63b8ff" d="M660.19,-359.76C656.01,-313.65 638.95,-198.36 571,-139.5 566.61,-135.7 561.63,-132.6 556.32,-130.09"/>
<polygon fill="#63b8ff" stroke="#63b8ff" points="656.71,-360.22 660.99,-369.91 663.69,-359.66 656.71,-360.22"/>
</a>
</g>
</g>
<!-- Node25 -->
<g id="Node000025" class="node">
<title>Node25</title>
<g id="a_Node000025"><a xlink:href="testas_8cpp.html#a326b0b0101acfb38443e5b9e2ce88720" target="_top" xlink:title=" ">
<polygon fill="white" stroke="#666666" points="568,-93 400,-93 400,-74 568,-74 568,-93"/>
<text text-anchor="middle" x="484" y="-81" font-family="Helvetica,sans-Serif" font-size="10.00">testuotiPerkelimoKonstruktoriu</text>
</a>
</g>
</g>
<!-- Node1&#45;&gt;Node25 -->
<g id="edge28_Node000001_Node000025" class="edge">
<title>Node1&#45;&gt;Node25</title>
<g id="a_edge28_Node000001_Node000025"><a xlink:title=" ">
<path fill="none" stroke="#63b8ff" d="M661.32,-359.56C659.71,-308.53 648.04,-172.31 571,-102.5 566.81,-98.7 562.03,-95.6 556.93,-93.08"/>
<polygon fill="#63b8ff" stroke="#63b8ff" points="657.83,-359.94 661.54,-369.86 664.82,-359.79 657.83,-359.94"/>
</a>
</g>
</g>
<!-- Node26 -->
<g id="Node000026" class="node">
<title>Node26</title>
<g id="a_Node000026"><a xlink:href="testas_8cpp.html#acbc7a298bf5e8af17612dcf6d63f0920" target="_top" xlink:title=" ">
<polygon fill="white" stroke="#666666" points="561.5,-56 406.5,-56 406.5,-37 561.5,-37 561.5,-56"/>
<text text-anchor="middle" x="484" y="-44" font-family="Helvetica,sans-Serif" font-size="10.00">testuotiPerkelimoPriskyrima</text>
</a>
</g>
</g>
<!-- Node1&#45;&gt;Node26 -->
<g id="edge30_Node000001_Node000026" class="edge">
<title>Node1&#45;&gt;Node26</title>
<g id="a_edge30_Node000001_Node000026"><a xlink:title=" ">
<path fill="none" stroke="#63b8ff" d="M662.21,-359.57C663.04,-304.07 657.31,-146.52 571,-65.5 566.99,-61.73 562.4,-58.65 557.48,-56.13"/>
<polygon fill="#63b8ff" stroke="#63b8ff" points="658.71,-359.72 661.96,-369.8 665.71,-359.89 658.71,-359.72"/>
</a>
</g>
</g>
<!-- Node27 -->
<g id="Node000027" class="node">
<title>Node27</title>
<g id="a_Node000027"><a xlink:href="testas_8cpp.html#aedb355f6a889a35dc94703016d84240a" target="_top" xlink:title=" ">
<polygon fill="white" stroke="#666666" points="562.5,-19 405.5,-19 405.5,0 562.5,0 562.5,-19"/>
<text text-anchor="middle" x="484" y="-7" font-family="Helvetica,sans-Serif" font-size="10.00">testuotiSrautiniKonstruktoriu</text>
</a>
</g>
</g>
<!-- Node1&#45;&gt;Node27 -->
<g id="edge32_Node000001_Node000027" class="edge">
<title>Node1&#45;&gt;Node27</title>
<g id="a_edge32_Node000001_Node000027"><a xlink:title=" ">
<path fill="none" stroke="#63b8ff" d="M659.17,-359.86C650.83,-292.81 620.27,-74.58 571,-27.5 567.58,-24.23 563.73,-21.49 559.6,-19.2"/>
<polygon fill="#63b8ff" stroke="#63b8ff" points="655.71,-360.41 660.4,-369.91 662.66,-359.56 655.71,-360.41"/>
</a>
</g>
</g>
<!-- Node4 -->
<g id="Node000004" class="node">
<title>Node4</title>
<g id="a_Node000004"><a xlink:href="spausdinam_8cpp.html#a70a103dcbe6b70e700d8a2411aff17e2" target="_top" xlink:title="Interaktyviai prašo rikiavimo kriterijaus ir rikiuoja studentus.">
<polygon fill="white" stroke="#666666" points="339.5,-740 239.5,-740 239.5,-721 339.5,-721 339.5,-740"/>
<text text-anchor="middle" x="289.5" y="-728" font-family="Helvetica,sans-Serif" font-size="10.00">rikiuotiStudentus</text>
</a>
</g>
</g>
<!-- Node3&#45;&gt;Node4 -->
<g id="edge3_Node000003_Node000004" class="edge">
<title>Node3&#45;&gt;Node4</title>
<g id="a_edge3_Node000003_Node000004"><a xlink:title=" ">
<path fill="none" stroke="#63b8ff" d="M418.33,-718.55C392.65,-720.95 363.6,-723.66 339.69,-725.9"/>
<polygon fill="#63b8ff" stroke="#63b8ff" points="418.72,-722.03 428.35,-717.61 418.07,-715.06 418.72,-722.03"/>
</a>
</g>
</g>
<!-- Node7 -->
<g id="Node000007" class="node">
<title>Node7</title>
<g id="a_Node000007"><a xlink:href="spausdinam_8cpp.html#a7e246727d186158daa8643faf7eefcfe" target="_top" xlink:title="Rikiuoja studentus pagal galutinį vidurkio balą (didėjančia tvarka).">
<polygon fill="white" stroke="#666666" points="361,-703 218,-703 218,-684 361,-684 361,-703"/>
<text text-anchor="middle" x="289.5" y="-691" font-family="Helvetica,sans-Serif" font-size="10.00">surikiuotiPagalGalutiniVid</text>
</a>
</g>
</g>
<!-- Node3&#45;&gt;Node7 -->
<g id="edge7_Node000003_Node000007" class="edge">
<title>Node3&#45;&gt;Node7</title>
<g id="a_edge7_Node000003_Node000007"><a xlink:title=" ">
<path fill="none" stroke="#63b8ff" d="M418.34,-706.12C399.96,-704.3 379.85,-702.32 361.14,-700.47"/>
<polygon fill="#63b8ff" stroke="#63b8ff" points="418.06,-709.61 428.35,-707.11 418.74,-702.64 418.06,-709.61"/>
</a>
</g>
</g>
<!-- Node5 -->
<g id="Node000005" class="node">
<title>Node5</title>
<g id="a_Node000005"><a xlink:href="main_8cpp.html#ae66f6b31b5ad750f1fe042a706a4e3d4" target="_top" xlink:title=" ">
<polygon fill="white" stroke="#666666" points="41,-740 0,-740 0,-721 41,-721 41,-740"/>
<text text-anchor="middle" x="20.5" y="-728" font-family="Helvetica,sans-Serif" font-size="10.00">main</text>
</a>
</g>
</g>
<!-- Node4&#45;&gt;Node5 -->
<g id="edge4_Node000004_Node000005" class="edge">
<title>Node4&#45;&gt;Node5</title>
<g id="a_edge4_Node000004_Node000005"><a xlink:title=" ">
<path fill="none" stroke="#63b8ff" d="M229.13,-730.5C169.23,-730.5 80.17,-730.5 41.09,-730.5"/>
<polygon fill="#63b8ff" stroke="#63b8ff" points="229.22,-734 239.22,-730.5 229.22,-727 229.22,-734"/>
</a>
</g>
</g>
<!-- Node6 -->
<g id="Node000006" class="node">
<title>Node6</title>
<g id="a_Node000006"><a xlink:href="Generavimas_8cpp.html#a83f8917f2570ce710ba6698a644d450e" target="_top" xlink:title="Bendro naudojimo skirstymo funkcija.">
<polygon fill="white" stroke="#666666" points="182,-721 77,-721 77,-702 182,-702 182,-721"/>
<text text-anchor="middle" x="129.5" y="-709" font-family="Helvetica,sans-Serif" font-size="10.00">skirstymasGrupes</text>
</a>
</g>
</g>
<!-- Node4&#45;&gt;Node6 -->
<g id="edge5_Node000004_Node000006" class="edge">
<title>Node4&#45;&gt;Node6</title>
<g id="a_edge5_Node000004_Node000006"><a xlink:title=" ">
<path fill="none" stroke="#63b8ff" d="M229.35,-723.39C213.8,-721.52 197.16,-719.52 182.06,-717.7"/>
<polygon fill="#63b8ff" stroke="#63b8ff" points="229.03,-726.87 239.37,-724.59 229.86,-719.92 229.03,-726.87"/>
</a>
</g>
</g>
<!-- Node6&#45;&gt;Node5 -->
<g id="edge6_Node000006_Node000005" class="edge">
<title>Node6&#45;&gt;Node5</title>
<g id="a_edge6_Node000006_Node000005"><a xlink:title=" ">
<path fill="none" stroke="#63b8ff" d="M66.77,-722.46C57.52,-724.1 48.61,-725.69 41.18,-727.01"/>
<polygon fill="#63b8ff" stroke="#63b8ff" points="67.65,-725.86 76.88,-720.67 66.42,-718.97 67.65,-725.86"/>
</a>
</g>
</g>
<!-- Node21 -->
<g id="Node000021" class="node">
<title>Node21</title>
<g id="a_Node000021"><a xlink:href="testas_8cpp.html#a5b0bc173f8bb450eee52bf4e5812ea09" target="_top" xlink:title=" ">
<polygon fill="white" stroke="#666666" points="331.5,-130 247.5,-130 247.5,-111 331.5,-111 331.5,-130"/>
<text text-anchor="middle" x="289.5" y="-118" font-family="Helvetica,sans-Serif" font-size="10.00">vykdytiTestus</text>
</a>
</g>
</g>
<!-- Node20&#45;&gt;Node21 -->
<g id="edge21_Node000020_Node000021" class="edge">
<title>Node20&#45;&gt;Node21</title>
<g id="a_edge21_Node000020_Node000021"><a xlink:title=" ">
<path fill="none" stroke="#63b8ff" d="M409.01,-218.65C404.87,-217.12 400.84,-215.41 397,-213.5 354.15,-192.16 314.79,-149.37 298.46,-130.19"/>
<polygon fill="#63b8ff" stroke="#63b8ff" points="408.23,-222.08 418.82,-221.9 410.43,-215.43 408.23,-222.08"/>
</a>
</g>
</g>
<!-- Node22&#45;&gt;Node21 -->
<g id="edge23_Node000022_Node000021" class="edge">
<title>Node22&#45;&gt;Node21</title>
<g id="a_edge23_Node000022_Node000021"><a xlink:title=" ">
<path fill="none" stroke="#63b8ff" d="M416.59,-182.55C409.9,-180.76 403.27,-178.75 397,-176.5 362.6,-164.13 325.46,-142.5 305.41,-130.06"/>
<polygon fill="#63b8ff" stroke="#63b8ff" points="415.85,-185.97 426.4,-185 417.55,-179.18 415.85,-185.97"/>
</a>
</g>
</g>
<!-- Node23&#45;&gt;Node21 -->
<g id="edge25_Node000023_Node000021" class="edge">
<title>Node23&#45;&gt;Node21</title>
<g id="a_edge25_Node000023_Node000021"><a xlink:title=" ">
<path fill="none" stroke="#63b8ff" d="M423.57,-146.08C393.82,-140.36 358.53,-133.58 331.78,-128.43"/>
<polygon fill="#63b8ff" stroke="#63b8ff" points="422.95,-149.52 433.43,-147.97 424.27,-142.65 422.95,-149.52"/>
</a>
</g>
</g>
<!-- Node24&#45;&gt;Node21 -->
<g id="edge27_Node000024_Node000021" class="edge">
<title>Node24&#45;&gt;Node21</title>
<g id="a_edge27_Node000024_Node000021"><a xlink:title=" ">
<path fill="none" stroke="#63b8ff" d="M393.15,-120.5C371.65,-120.5 349.73,-120.5 331.7,-120.5"/>
<polygon fill="#63b8ff" stroke="#63b8ff" points="393.31,-124 403.31,-120.5 393.31,-117 393.31,-124"/>
</a>
</g>
</g>
<!-- Node25&#45;&gt;Node21 -->
<g id="edge29_Node000025_Node000021" class="edge">
<title>Node25&#45;&gt;Node21</title>
<g id="a_edge29_Node000025_Node000021"><a xlink:title=" ">
<path fill="none" stroke="#63b8ff" d="M423.57,-94.92C393.82,-100.64 358.53,-107.42 331.78,-112.57"/>
<polygon fill="#63b8ff" stroke="#63b8ff" points="424.27,-98.35 433.43,-93.03 422.95,-91.48 424.27,-98.35"/>
</a>
</g>
</g>
<!-- Node26&#45;&gt;Node21 -->
<g id="edge31_Node000026_Node000021" class="edge">
<title>Node26&#45;&gt;Node21</title>
<g id="a_edge31_Node000026_Node000021"><a xlink:title=" ">
<path fill="none" stroke="#63b8ff" d="M419.81,-58.48C412.04,-60.53 404.28,-62.87 397,-65.5 362.95,-77.82 325.99,-98.8 305.8,-110.98"/>
<polygon fill="#63b8ff" stroke="#63b8ff" points="420.77,-61.85 429.63,-56.03 419.08,-55.06 420.77,-61.85"/>
</a>
</g>
</g>
<!-- Node27&#45;&gt;Node21 -->
<g id="edge33_Node000027_Node000021" class="edge">
<title>Node27&#45;&gt;Node21</title>
<g id="a_edge33_Node000027_Node000021"><a xlink:title=" ">
<path fill="none" stroke="#63b8ff" d="M409.01,-22.35C404.87,-23.88 400.84,-25.59 397,-27.5 354.15,-48.84 314.79,-91.63 298.46,-110.81"/>
<polygon fill="#63b8ff" stroke="#63b8ff" points="410.43,-25.57 418.82,-19.1 408.23,-18.92 410.43,-25.57"/>
</a>
</g>
</g>
</g>
</svg>

<g id="navigator" transform="translate(0 0)" fill="#404254">
  <rect fill="#f2f5e9" fill-opacity="0.5" stroke="#606060" stroke-width=".5" x="0" y="0" width="60" height="60"/>
  <use id="zoomplus" xlink:href="#zoomPlus" x="17" y="9" onmousedown="handleZoom(evt,'in')"/>
  <use id="zoomminus" xlink:href="#zoomMin" x="42" y="9" onmousedown="handleZoom(evt,'out')"/>
  <use id="reset" xlink:href="#resetDef" x="30" y="36" onmousedown="handleReset()"/>
   <use id="arrowup" xlink:href="#arrowUp" x="0" y="0" onmousedown="handlePan(0,-1)"/>
  <use id="arrowright" xlink:href="#arrowRight" x="0" y="0" onmousedown="handlePan(1,0)"/>
  <use id="arrowdown" xlink:href="#arrowDown" x="0" y="0" onmousedown="handlePan(0,1)"/>
  <use id="arrowleft" xlink:href="#arrowLeft" x="0" y="0" onmousedown="handlePan(-1,0)"/>
</g>
<svg viewBox="0 0 15 15" width="100%" height="30px" preserveAspectRatio="xMaxYMin meet">
 <g id="arrow_out" transform="scale(0.3 0.3)">
  <a xlink:href="classZmogus_af00bd4ee050cb93b59de8a48340049d7_icgraph_org.svg" target="_base">
   <rect id="button" ry="5" rx="5" y="6" x="6" height="38" width="38"
        fill="#f2f5e9" fill-opacity="0.5" stroke="#606060" stroke-width="1.0"/>
   <path id="arrow"
     d="M 11.500037,31.436501 C 11.940474,20.09759 22.043105,11.32322 32.158766,21.979434 L 37.068811,17.246167 C 37.068811,17.246167 37.088388,32 37.088388,32 L 22.160133,31.978069 C 22.160133,31.978069 26.997745,27.140456 26.997745,27.140456 C 18.528582,18.264221 13.291696,25.230495 11.500037,31.436501 z"
     style="fill:#404040;"/>
  </a>
 </g>
</svg>

<style type='text/css'>
<![CDATA[
[data-mouse-over-selected='false'] { opacity: 0.7; }
[data-mouse-over-selected='true']  { opacity: 1.0; }
]]>
</style>
<script type="application/ecmascript"><![CDATA[
document.addEventListener('DOMContentLoaded', (event) => {
  highlightEdges();
  highlightAdjacentNodes();
});
]]></script>
</svg>
