<?xml version="1.0" encoding="UTF-8" standalone="no"?>
<!DOCTYPE svg PUBLIC "-//W3C//DTD SVG 1.1//EN"
 "http://www.w3.org/Graphics/SVG/1.1/DTD/svg11.dtd">
<!-- Generated by graphviz version 2.42.4 (0)
 -->
<!-- Title: Studentas::operator&gt;&gt; Pages: 1 -->
<svg width="340pt" height="64pt"
 viewBox="0.00 0.00 340.00 64.00" xmlns="http://www.w3.org/2000/svg" xmlns:xlink="http://www.w3.org/1999/xlink">
<g id="graph0" class="graph" transform="scale(1 1) rotate(0) translate(4 60)">
<title>Studentas::operator&gt;&gt;</title>
<!-- Node1 -->
<g id="Node000001" class="node">
<title>Node1</title>
<g id="a_Node000001"><a xlink:title="Įvesties operatorius srautui.">
<polygon fill="#999999" stroke="#666666" points="129,-37 0,-37 0,-18 129,-18 129,-37"/>
<text text-anchor="middle" x="64.5" y="-25" font-family="Helvetica,sans-Serif" font-size="10.00">Studentas::operator&gt;&gt;</text>
</a>
</g>
</g>
<!-- Node2 -->
<g id="Node000002" class="node">
<title>Node2</title>
<g id="a_Node000002"><a xlink:href="classStudentas.html#a56cfe16f164d76b63f50898ef0a6403a" target="_top" xlink:title="Nuskaito studento duomenis iš srauto.">
<polygon fill="white" stroke="#666666" points="314,-56 183,-56 183,-37 314,-37 314,-56"/>
<text text-anchor="middle" x="248.5" y="-44" font-family="Helvetica,sans-Serif" font-size="10.00">Studentas::readStudent</text>
</a>
</g>
</g>
<!-- Node1&#45;&gt;Node2 -->
<g id="edge1_Node000001_Node000002" class="edge">
<title>Node1&#45;&gt;Node2</title>
<g id="a_edge1_Node000001_Node000002"><a xlink:title=" ">
<path fill="none" stroke="#63b8ff" d="M129.15,-34.15C143.31,-35.62 158.45,-37.2 173,-38.72"/>
<polygon fill="#63b8ff" stroke="#63b8ff" points="172.65,-42.2 182.96,-39.76 173.37,-35.24 172.65,-42.2"/>
</a>
</g>
</g>
<!-- Node3 -->
<g id="Node000003" class="node">
<title>Node3</title>
<g id="a_Node000003"><a xlink:href="classStudentas.html#a994a9edb8000f03b9fbb7a4f07c7d8d8" target="_top" xlink:title="Apskaičiuoja galutinį įvertinimą (vidurkio ir medianos variantus).">
<polygon fill="white" stroke="#666666" points="332,-19 165,-19 165,0 332,0 332,-19"/>
<text text-anchor="middle" x="248.5" y="-7" font-family="Helvetica,sans-Serif" font-size="10.00">Studentas::suskaiciuotiGalutini</text>
</a>
</g>
</g>
<!-- Node1&#45;&gt;Node3 -->
<g id="edge2_Node000001_Node000003" class="edge">
<title>Node1&#45;&gt;Node3</title>
<g id="a_edge2_Node000001_Node000003"><a xlink:title=" ">
<path fill="none" stroke="#63b8ff" d="M129.15,-21.2C137.41,-20.39 145.99,-19.54 154.59,-18.69"/>
<polygon fill="#63b8ff" stroke="#63b8ff" points="155.08,-22.16 164.69,-17.69 154.39,-15.19 155.08,-22.16"/>
</a>
</g>
</g>
</g>
</svg>
