<?xml version="1.0" encoding="UTF-8" standalone="no"?>
<!DOCTYPE svg PUBLIC "-//W3C//DTD SVG 1.1//EN"
 "http://www.w3.org/Graphics/SVG/1.1/DTD/svg11.dtd">
<!-- Generated by graphviz version 2.42.4 (0)
 -->
<!-- Title: konteineris.h Pages: 1 -->
<svg width="692pt" height="137pt"
 viewBox="0.00 0.00 691.50 137.00" xmlns="http://www.w3.org/2000/svg" xmlns:xlink="http://www.w3.org/1999/xlink">
<g id="graph0" class="graph" transform="scale(1 1) rotate(0) translate(4 133)">
<title>konteineris.h</title>
<!-- Node1 -->
<g id="Node000001" class="node">
<title>Node1</title>
<g id="a_Node000001"><a xlink:title="Kompiliavimo laiku pasirenkamas studentų konteineris.">
<polygon fill="#999999" stroke="#666666" points="378,-129 298,-129 298,-110 378,-110 378,-129"/>
<text text-anchor="middle" x="338" y="-117" font-family="Helvetica,sans-Serif" font-size="10.00">konteineris.h</text>
</a>
</g>
</g>
<!-- Node2 -->
<g id="Node000002" class="node">
<title>Node2</title>
<g id="a_Node000002"><a xlink:href="Generavimas_8h.html" target="_top" xlink:title="Studentų failų generavimo ir skirstymo į grupes funkcijų deklaracijos.">
<polygon fill="white" stroke="#666666" points="429.5,-74 338.5,-74 338.5,-55 429.5,-55 429.5,-74"/>
<text text-anchor="middle" x="384" y="-62" font-family="Helvetica,sans-Serif" font-size="10.00">Generavimas.h</text>
</a>
</g>
</g>
<!-- Node1&#45;&gt;Node2 -->
<g id="edge1_Node000001_Node000002" class="edge">
<title>Node1&#45;&gt;Node2</title>
<g id="a_edge1_Node000001_Node000002"><a xlink:title=" ">
<path fill="none" stroke="#63b8ff" d="M352.36,-101.96C360.37,-92.72 370.03,-81.6 376.55,-74.09"/>
<polygon fill="#63b8ff" stroke="#63b8ff" points="349.51,-99.9 345.6,-109.75 354.79,-104.49 349.51,-99.9"/>
</a>
</g>
</g>
<!-- Node4 -->
<g id="Node000004" class="node">
<title>Node4</title>
<g id="a_Node000004"><a xlink:href="main_8cpp.html" target="_top" xlink:title=" ">
<polygon fill="white" stroke="#666666" points="296,-19 234,-19 234,0 296,0 296,-19"/>
<text text-anchor="middle" x="265" y="-7" font-family="Helvetica,sans-Serif" font-size="10.00">main.cpp</text>
</a>
</g>
</g>
<!-- Node1&#45;&gt;Node4 -->
<g id="edge7_Node000001_Node000004" class="edge">
<title>Node1&#45;&gt;Node4</title>
<g id="a_edge7_Node000001_Node000004"><a xlink:title=" ">
<path fill="none" stroke="#63b8ff" d="M295.43,-106.05C279.91,-99.22 263.97,-88.99 255,-74 244.68,-56.76 253.82,-32.37 260.15,-19.41"/>
<polygon fill="#63b8ff" stroke="#63b8ff" points="294.4,-109.4 304.98,-109.87 297,-102.9 294.4,-109.4"/>
</a>
</g>
</g>
<!-- Node6 -->
<g id="Node000006" class="node">
<title>Node6</title>
<g id="a_Node000006"><a xlink:href="tyrimas_8cpp.html" target="_top" xlink:title=" ">
<polygon fill="white" stroke="#666666" points="578,-19 504,-19 504,0 578,0 578,-19"/>
<text text-anchor="middle" x="541" y="-7" font-family="Helvetica,sans-Serif" font-size="10.00">tyrimas.cpp</text>
</a>
</g>
</g>
<!-- Node1&#45;&gt;Node6 -->
<g id="edge21_Node000001_Node000006" class="edge">
<title>Node1&#45;&gt;Node6</title>
<g id="a_edge21_Node000001_Node000006"><a xlink:title=" ">
<path fill="none" stroke="#63b8ff" d="M388.31,-113.54C439.49,-107.39 513.92,-95.07 533,-74 546.72,-58.85 544.85,-32.67 542.71,-19.15"/>
<polygon fill="#63b8ff" stroke="#63b8ff" points="387.62,-110.09 378.09,-114.72 388.42,-117.05 387.62,-110.09"/>
</a>
</g>
</g>
<!-- Node8 -->
<g id="Node000008" class="node">
<title>Node8</title>
<g id="a_Node000008"><a xlink:href="meniu_8h.html" target="_top" xlink:title="Pagrindinio programos meniu funkcijos deklaracija.">
<polygon fill="white" stroke="#666666" points="320,-74 264,-74 264,-55 320,-55 320,-74"/>
<text text-anchor="middle" x="292" y="-62" font-family="Helvetica,sans-Serif" font-size="10.00">meniu.h</text>
</a>
</g>
</g>
<!-- Node1&#45;&gt;Node8 -->
<g id="edge8_Node000001_Node000008" class="edge">
<title>Node1&#45;&gt;Node8</title>
<g id="a_edge8_Node000001_Node000008"><a xlink:title=" ">
<path fill="none" stroke="#63b8ff" d="M323.64,-101.96C315.63,-92.72 305.97,-81.6 299.45,-74.09"/>
<polygon fill="#63b8ff" stroke="#63b8ff" points="321.21,-104.49 330.4,-109.75 326.49,-99.9 321.21,-104.49"/>
</a>
</g>
</g>
<!-- Node9 -->
<g id="Node000009" class="node">
<title>Node9</title>
<g id="a_Node000009"><a xlink:href="skaitymas_8h.html" target="_top" xlink:title="Studentų duomenų skaitymo funkcijų deklaracijos.">
<polygon fill="white" stroke="#666666" points="524,-74 448,-74 448,-55 524,-55 524,-74"/>
<text text-anchor="middle" x="486" y="-62" font-family="Helvetica,sans-Serif" font-size="10.00">skaitymas.h</text>
</a>
</g>
</g>
<!-- Node1&#45;&gt;Node9 -->
<g id="edge11_Node000001_Node000009" class="edge">
<title>Node1&#45;&gt;Node9</title>
<g id="a_edge11_Node000001_Node000009"><a xlink:title=" ">
<path fill="none" stroke="#63b8ff" d="M371.37,-106.55C398.85,-96.71 437.17,-82.98 461.79,-74.17"/>
<polygon fill="#63b8ff" stroke="#63b8ff" points="370.01,-103.32 361.78,-109.98 372.37,-109.91 370.01,-103.32"/>
</a>
</g>
</g>
<!-- Node11 -->
<g id="Node000011" class="node">
<title>Node11</title>
<g id="a_Node000011"><a xlink:href="spausdinam_8h.html" target="_top" xlink:title="Studentų duomenų rikiavimo ir išvedimo funkcijų deklaracijos.">
<polygon fill="white" stroke="#666666" points="207.5,-74 122.5,-74 122.5,-55 207.5,-55 207.5,-74"/>
<text text-anchor="middle" x="165" y="-62" font-family="Helvetica,sans-Serif" font-size="10.00">spausdinam.h</text>
</a>
</g>
</g>
<!-- Node1&#45;&gt;Node11 -->
<g id="edge16_Node000001_Node000011" class="edge">
<title>Node1&#45;&gt;Node11</title>
<g id="a_edge16_Node000001_Node000011"><a xlink:title=" ">
<path fill="none" stroke="#63b8ff" d="M300.23,-106.93C267.91,-97.03 222.14,-83.01 193.01,-74.08"/>
<polygon fill="#63b8ff" stroke="#63b8ff" points="299.62,-110.4 310.2,-109.98 301.67,-103.71 299.62,-110.4"/>
</a>
</g>
</g>
<!-- Node3 -->
<g id="Node000003" class="node">
<title>Node3</title>
<g id="a_Node000003"><a xlink:href="Generavimas_8cpp.html" target="_top" xlink:title=" ">
<polygon fill="white" stroke="#666666" points="216,-19 114,-19 114,0 216,0 216,-19"/>
<text text-anchor="middle" x="165" y="-7" font-family="Helvetica,sans-Serif" font-size="10.00">Generavimas.cpp</text>
</a>
</g>
</g>
<!-- Node2&#45;&gt;Node3 -->
<g id="edge2_Node000002_Node000003" class="edge">
<title>Node2&#45;&gt;Node3</title>
<g id="a_edge2_Node000002_Node000003"><a xlink:title=" ">
<path fill="none" stroke="#63b8ff" d="M339.07,-52.63C298.05,-42.7 238.21,-28.22 200.46,-19.08"/>
<polygon fill="#63b8ff" stroke="#63b8ff" points="338.27,-56.03 348.81,-54.98 339.92,-49.23 338.27,-56.03"/>
</a>
</g>
</g>
<!-- Node2&#45;&gt;Node4 -->
<g id="edge3_Node000002_Node000004" class="edge">
<title>Node2&#45;&gt;Node4</title>
<g id="a_edge3_Node000002_Node000004"><a xlink:title=" ">
<path fill="none" stroke="#63b8ff" d="M355.7,-50.9C333.72,-41.11 303.82,-27.79 284.47,-19.17"/>
<polygon fill="#63b8ff" stroke="#63b8ff" points="354.32,-54.11 364.88,-54.98 357.17,-47.72 354.32,-54.11"/>
</a>
</g>
</g>
<!-- Node5 -->
<g id="Node000005" class="node">
<title>Node5</title>
<g id="a_Node000005"><a xlink:href="meniu_8cpp.html" target="_top" xlink:title=" ">
<polygon fill="white" stroke="#666666" points="486,-19 418,-19 418,0 486,0 486,-19"/>
<text text-anchor="middle" x="452" y="-7" font-family="Helvetica,sans-Serif" font-size="10.00">meniu.cpp</text>
</a>
</g>
</g>
<!-- Node2&#45;&gt;Node5 -->
<g id="edge4_Node000002_Node000005" class="edge">
<title>Node2&#45;&gt;Node5</title>
<g id="a_edge4_Node000002_Node000005"><a xlink:title=" ">
<path fill="none" stroke="#63b8ff" d="M403.12,-48.6C415.3,-39.11 430.66,-27.13 440.88,-19.17"/>
<polygon fill="#63b8ff" stroke="#63b8ff" points="400.66,-46.08 394.93,-54.98 404.96,-51.6 400.66,-46.08"/>
</a>
</g>
</g>
<!-- Node2&#45;&gt;Node6 -->
<g id="edge5_Node000002_Node000006" class="edge">
<title>Node2&#45;&gt;Node6</title>
<g id="a_edge5_Node000002_Node000006"><a xlink:title=" ">
<path fill="none" stroke="#63b8ff" d="M419.05,-51.67C448.32,-41.79 489.37,-27.93 515.58,-19.08"/>
<polygon fill="#63b8ff" stroke="#63b8ff" points="417.58,-48.47 409.22,-54.98 419.82,-55.1 417.58,-48.47"/>
</a>
</g>
</g>
<!-- Node7 -->
<g id="Node000007" class="node">
<title>Node7</title>
<g id="a_Node000007"><a xlink:href="unit__tests_8cpp.html" target="_top" xlink:title="Google Test unit testai Studentas klasei.">
<polygon fill="white" stroke="#666666" points="399.5,-19 314.5,-19 314.5,0 399.5,0 399.5,-19"/>
<text text-anchor="middle" x="357" y="-7" font-family="Helvetica,sans-Serif" font-size="10.00">unit_tests.cpp</text>
</a>
</g>
</g>
<!-- Node2&#45;&gt;Node7 -->
<g id="edge6_Node000002_Node000007" class="edge">
<title>Node2&#45;&gt;Node7</title>
<g id="a_edge6_Node000002_Node000007"><a xlink:title=" ">
<path fill="none" stroke="#63b8ff" d="M374.99,-45.82C370.41,-36.82 365.05,-26.29 361.38,-19.09"/>
<polygon fill="#63b8ff" stroke="#63b8ff" points="371.88,-47.43 379.54,-54.75 378.12,-44.25 371.88,-47.43"/>
</a>
</g>
</g>
<!-- Node8&#45;&gt;Node4 -->
<g id="edge9_Node000008_Node000004" class="edge">
<title>Node8&#45;&gt;Node4</title>
<g id="a_edge9_Node000008_Node000004"><a xlink:title=" ">
<path fill="none" stroke="#63b8ff" d="M282.99,-45.82C278.41,-36.82 273.05,-26.29 269.38,-19.09"/>
<polygon fill="#63b8ff" stroke="#63b8ff" points="279.88,-47.43 287.54,-54.75 286.12,-44.25 279.88,-47.43"/>
</a>
</g>
</g>
<!-- Node8&#45;&gt;Node5 -->
<g id="edge10_Node000008_Node000005" class="edge">
<title>Node8&#45;&gt;Node5</title>
<g id="a_edge10_Node000008_Node000005"><a xlink:title=" ">
<path fill="none" stroke="#63b8ff" d="M327.33,-51.8C357.19,-41.91 399.27,-27.97 426.09,-19.08"/>
<polygon fill="#63b8ff" stroke="#63b8ff" points="326.1,-48.52 317.71,-54.98 328.3,-55.16 326.1,-48.52"/>
</a>
</g>
</g>
<!-- Node9&#45;&gt;Node4 -->
<g id="edge12_Node000009_Node000004" class="edge">
<title>Node9&#45;&gt;Node4</title>
<g id="a_edge12_Node000009_Node000004"><a xlink:title=" ">
<path fill="none" stroke="#63b8ff" d="M440.54,-52.6C397.42,-42.26 333.77,-26.99 296.13,-17.97"/>
<polygon fill="#63b8ff" stroke="#63b8ff" points="439.95,-56.06 450.49,-54.98 441.58,-49.25 439.95,-56.06"/>
</a>
</g>
</g>
<!-- Node9&#45;&gt;Node5 -->
<g id="edge13_Node000009_Node000005" class="edge">
<title>Node9&#45;&gt;Node5</title>
<g id="a_edge13_Node000009_Node000005"><a xlink:title=" ">
<path fill="none" stroke="#63b8ff" d="M474.84,-46.1C469.03,-37.04 462.18,-26.37 457.51,-19.09"/>
<polygon fill="#63b8ff" stroke="#63b8ff" points="472.04,-48.22 480.39,-54.75 477.93,-44.44 472.04,-48.22"/>
</a>
</g>
</g>
<!-- Node9&#45;&gt;Node6 -->
<g id="edge15_Node000009_Node000006" class="edge">
<title>Node9&#45;&gt;Node6</title>
<g id="a_edge15_Node000009_Node000006"><a xlink:title=" ">
<path fill="none" stroke="#63b8ff" d="M502.29,-47.8C512.04,-38.41 524.05,-26.83 532.09,-19.09"/>
<polygon fill="#63b8ff" stroke="#63b8ff" points="499.85,-45.29 495.08,-54.75 504.71,-50.33 499.85,-45.29"/>
</a>
</g>
</g>
<!-- Node10 -->
<g id="Node000010" class="node">
<title>Node10</title>
<g id="a_Node000010"><a xlink:href="skaitymas_8cpp.html" target="_top" xlink:title=" ">
<polygon fill="white" stroke="#666666" points="683.5,-19 596.5,-19 596.5,0 683.5,0 683.5,-19"/>
<text text-anchor="middle" x="640" y="-7" font-family="Helvetica,sans-Serif" font-size="10.00">skaitymas.cpp</text>
</a>
</g>
</g>
<!-- Node9&#45;&gt;Node10 -->
<g id="edge14_Node000009_Node000010" class="edge">
<title>Node9&#45;&gt;Node10</title>
<g id="a_edge14_Node000009_Node000010"><a xlink:title=" ">
<path fill="none" stroke="#63b8ff" d="M520.38,-51.67C549.09,-41.79 589.36,-27.93 615.06,-19.08"/>
<polygon fill="#63b8ff" stroke="#63b8ff" points="519.06,-48.42 510.74,-54.98 521.34,-55.04 519.06,-48.42"/>
</a>
</g>
</g>
<!-- Node11&#45;&gt;Node3 -->
<g id="edge17_Node000011_Node000003" class="edge">
<title>Node11&#45;&gt;Node3</title>
<g id="a_edge17_Node000011_Node000003"><a xlink:title=" ">
<path fill="none" stroke="#63b8ff" d="M165,-44.66C165,-35.93 165,-25.99 165,-19.09"/>
<polygon fill="#63b8ff" stroke="#63b8ff" points="161.5,-44.75 165,-54.75 168.5,-44.75 161.5,-44.75"/>
</a>
</g>
</g>
<!-- Node11&#45;&gt;Node4 -->
<g id="edge18_Node000011_Node000004" class="edge">
<title>Node11&#45;&gt;Node4</title>
<g id="a_edge18_Node000011_Node000004"><a xlink:title=" ">
<path fill="none" stroke="#63b8ff" d="M190.03,-50.23C208.37,-40.51 232.74,-27.6 248.64,-19.17"/>
<polygon fill="#63b8ff" stroke="#63b8ff" points="188.26,-47.21 181.07,-54.98 191.54,-53.39 188.26,-47.21"/>
</a>
</g>
</g>
<!-- Node11&#45;&gt;Node6 -->
<g id="edge20_Node000011_Node000006" class="edge">
<title>Node11&#45;&gt;Node6</title>
<g id="a_edge20_Node000011_Node000006"><a xlink:title=" ">
<path fill="none" stroke="#63b8ff" d="M217.59,-57.21C282.81,-49.23 397.33,-34.6 495,-19 497.89,-18.54 500.87,-18.04 503.87,-17.52"/>
<polygon fill="#63b8ff" stroke="#63b8ff" points="217.06,-53.75 207.55,-58.43 217.9,-60.7 217.06,-53.75"/>
</a>
</g>
</g>
<!-- Node12 -->
<g id="Node000012" class="node">
<title>Node12</title>
<g id="a_Node000012"><a xlink:href="spausdinam_8cpp.html" target="_top" xlink:title=" ">
<polygon fill="white" stroke="#666666" points="96,-19 0,-19 0,0 96,0 96,-19"/>
<text text-anchor="middle" x="48" y="-7" font-family="Helvetica,sans-Serif" font-size="10.00">spausdinam.cpp</text>
</a>
</g>
</g>
<!-- Node11&#45;&gt;Node12 -->
<g id="edge19_Node000011_Node000012" class="edge">
<title>Node11&#45;&gt;Node12</title>
<g id="a_edge19_Node000011_Node000012"><a xlink:title=" ">
<path fill="none" stroke="#63b8ff" d="M136.89,-50.77C115.31,-40.99 86.09,-27.75 67.14,-19.17"/>
<polygon fill="#63b8ff" stroke="#63b8ff" points="135.65,-54.05 146.2,-54.98 138.54,-47.67 135.65,-54.05"/>
</a>
</g>
</g>
</g>
</svg>
