<?xml version="1.0" encoding="UTF-8" standalone="no"?>
<!DOCTYPE svg PUBLIC "-//W3C//DTD SVG 1.1//EN"
 "http://www.w3.org/Graphics/SVG/1.1/DTD/svg11.dtd">
<!-- Generated by graphviz version 2.42.4 (0)
 -->
<!-- Title: aktyvausKonteinerioPavadinimas Pages: 1 -->
<svg width="505pt" height="46pt"
 viewBox="0.00 0.00 505.00 46.00" xmlns="http://www.w3.org/2000/svg" xmlns:xlink="http://www.w3.org/1999/xlink">
<g id="graph0" class="graph" transform="scale(1 1) rotate(0) translate(4 42)">
<title>aktyvausKonteinerioPavadinimas</title>
<!-- Node1 -->
<g id="Node000001" class="node">
<title>Node1</title>
<g id="a_Node000001"><a xlink:title="Grąžina aktyvaus konteinerio pilną pavadinimą.">
<polygon fill="#999999" stroke="#666666" points="497,-38 318,-38 318,-19 497,-19 497,-38"/>
<text text-anchor="middle" x="407.5" y="-26" font-family="Helvetica,sans-Serif" font-size="10.00">aktyvausKonteinerioPavadinimas</text>
</a>
</g>
</g>
<!-- Node2 -->
<g id="Node000002" class="node">
<title>Node2</title>
<g id="a_Node000002"><a xlink:href="main_8cpp.html#ae66f6b31b5ad750f1fe042a706a4e3d4" target="_top" xlink:title=" ">
<polygon fill="white" stroke="#666666" points="41,-38 0,-38 0,-19 41,-19 41,-38"/>
<text text-anchor="middle" x="20.5" y="-26" font-family="Helvetica,sans-Serif" font-size="10.00">main</text>
</a>
</g>
</g>
<!-- Node1&#45;&gt;Node2 -->
<g id="edge1_Node000001_Node000002" class="edge">
<title>Node1&#45;&gt;Node2</title>
<g id="a_edge1_Node000001_Node000002"><a xlink:title=" ">
<path fill="none" stroke="#63b8ff" d="M307.65,-28.5C216.98,-28.5 89.67,-28.5 41.24,-28.5"/>
<polygon fill="#63b8ff" stroke="#63b8ff" points="307.69,-32 317.69,-28.5 307.69,-25 307.69,-32"/>
</a>
</g>
</g>
<!-- Node3 -->
<g id="Node000003" class="node">
<title>Node3</title>
<g id="a_Node000003"><a xlink:href="tyrimas_8cpp.html#a0fc853d31f208eafd9f0ecb727511e99" target="_top" xlink:title="Paleidžia interaktyvų konteinerių greitaveikos tyrimą.">
<polygon fill="white" stroke="#666666" points="282,-19 196,-19 196,0 282,0 282,-19"/>
<text text-anchor="middle" x="239" y="-7" font-family="Helvetica,sans-Serif" font-size="10.00">vykdytiTyrima</text>
</a>
</g>
</g>
<!-- Node1&#45;&gt;Node3 -->
<g id="edge2_Node000001_Node000003" class="edge">
<title>Node1&#45;&gt;Node3</title>
<g id="a_edge2_Node000001_Node000003"><a xlink:title=" ">
<path fill="none" stroke="#63b8ff" d="M312.55,-17.78C301.95,-16.57 291.59,-15.39 282.16,-14.31"/>
<polygon fill="#63b8ff" stroke="#63b8ff" points="312.43,-21.29 322.76,-18.94 313.22,-14.33 312.43,-21.29"/>
</a>
</g>
</g>
<!-- Node4 -->
<g id="Node000004" class="node">
<title>Node4</title>
<g id="a_Node000004"><a xlink:href="meniu_8cpp.html#a4bb692c238b0368aa3ac013f967f18af" target="_top" xlink:title="Paleidžia pagrindinį interaktyvų programos meniu.">
<polygon fill="white" stroke="#666666" points="160,-19 77,-19 77,0 160,0 160,-19"/>
<text text-anchor="middle" x="118.5" y="-7" font-family="Helvetica,sans-Serif" font-size="10.00">vykdytiMeniu</text>
</a>
</g>
</g>
<!-- Node3&#45;&gt;Node4 -->
<g id="edge3_Node000003_Node000004" class="edge">
<title>Node3&#45;&gt;Node4</title>
<g id="a_edge3_Node000003_Node000004"><a xlink:title=" ">
<path fill="none" stroke="#63b8ff" d="M185.66,-9.5C177.15,-9.5 168.46,-9.5 160.28,-9.5"/>
<polygon fill="#63b8ff" stroke="#63b8ff" points="185.89,-13 195.89,-9.5 185.89,-6 185.89,-13"/>
</a>
</g>
</g>
<!-- Node4&#45;&gt;Node2 -->
<g id="edge4_Node000004_Node000002" class="edge">
<title>Node4&#45;&gt;Node2</title>
<g id="a_edge4_Node000004_Node000002"><a xlink:title=" ">
<path fill="none" stroke="#63b8ff" d="M66.86,-19.52C57.69,-21.34 48.66,-23.13 41.09,-24.62"/>
<polygon fill="#63b8ff" stroke="#63b8ff" points="67.66,-22.93 76.79,-17.56 66.3,-16.07 67.66,-22.93"/>
</a>
</g>
</g>
</g>
</svg>
