<?xml version="1.0" encoding="UTF-8" standalone="no"?>
<!DOCTYPE svg PUBLIC "-//W3C//DTD SVG 1.1//EN"
 "http://www.w3.org/Graphics/SVG/1.1/DTD/svg11.dtd">
<!-- Generated by graphviz version 2.42.4 (0)
 -->
<!-- Title: laikai.h Pages: 1 -->
<svg width="584pt" height="82pt"
 viewBox="0.00 0.00 584.00 82.00" xmlns="http://www.w3.org/2000/svg" xmlns:xlink="http://www.w3.org/1999/xlink">
<g id="graph0" class="graph" transform="scale(1 1) rotate(0) translate(4 78)">
<title>laikai.h</title>
<!-- Node1 -->
<g id="Node000001" class="node">
<title>Node1</title>
<g id="a_Node000001"><a xlink:title="Laiko matavimų struktūra ir pagalbinės funkcijos.">
<polygon fill="#999999" stroke="#666666" points="305,-74 253,-74 253,-55 305,-55 305,-74"/>
<text text-anchor="middle" x="279" y="-62" font-family="Helvetica,sans-Serif" font-size="10.00">laikai.h</text>
</a>
</g>
</g>
<!-- Node2 -->
<g id="Node000002" class="node">
<title>Node2</title>
<g id="a_Node000002"><a xlink:href="Generavimas_8cpp.html" target="_top" xlink:title=" ">
<polygon fill="white" stroke="#666666" points="102,-19 0,-19 0,0 102,0 102,-19"/>
<text text-anchor="middle" x="51" y="-7" font-family="Helvetica,sans-Serif" font-size="10.00">Generavimas.cpp</text>
</a>
</g>
</g>
<!-- Node1&#45;&gt;Node2 -->
<g id="edge1_Node000001_Node000002" class="edge">
<title>Node1&#45;&gt;Node2</title>
<g id="a_edge1_Node000001_Node000002"><a xlink:title=" ">
<path fill="none" stroke="#63b8ff" d="M242.95,-55.12C200.52,-45.26 130.45,-28.97 87.73,-19.04"/>
<polygon fill="#63b8ff" stroke="#63b8ff" points="242.31,-58.57 252.85,-57.42 243.9,-51.75 242.31,-58.57"/>
</a>
</g>
</g>
<!-- Node3 -->
<g id="Node000003" class="node">
<title>Node3</title>
<g id="a_Node000003"><a xlink:href="laikai_8cpp.html" target="_top" xlink:title=" ">
<polygon fill="white" stroke="#666666" points="183.5,-19 120.5,-19 120.5,0 183.5,0 183.5,-19"/>
<text text-anchor="middle" x="152" y="-7" font-family="Helvetica,sans-Serif" font-size="10.00">laikai.cpp</text>
</a>
</g>
</g>
<!-- Node1&#45;&gt;Node3 -->
<g id="edge2_Node000001_Node000003" class="edge">
<title>Node1&#45;&gt;Node3</title>
<g id="a_edge2_Node000001_Node000003"><a xlink:title=" ">
<path fill="none" stroke="#63b8ff" d="M249.12,-51.03C225.63,-41.23 193.53,-27.83 172.78,-19.17"/>
<polygon fill="#63b8ff" stroke="#63b8ff" points="248.02,-54.36 258.6,-54.98 250.71,-47.9 248.02,-54.36"/>
</a>
</g>
</g>
<!-- Node4 -->
<g id="Node000004" class="node">
<title>Node4</title>
<g id="a_Node000004"><a xlink:href="main_8cpp.html" target="_top" xlink:title=" ">
<polygon fill="white" stroke="#666666" points="264,-19 202,-19 202,0 264,0 264,-19"/>
<text text-anchor="middle" x="233" y="-7" font-family="Helvetica,sans-Serif" font-size="10.00">main.cpp</text>
</a>
</g>
</g>
<!-- Node1&#45;&gt;Node4 -->
<g id="edge3_Node000001_Node000004" class="edge">
<title>Node1&#45;&gt;Node4</title>
<g id="a_edge3_Node000001_Node000004"><a xlink:title=" ">
<path fill="none" stroke="#63b8ff" d="M264.64,-46.96C256.63,-37.72 246.97,-26.6 240.45,-19.09"/>
<polygon fill="#63b8ff" stroke="#63b8ff" points="262.21,-49.49 271.4,-54.75 267.49,-44.9 262.21,-49.49"/>
</a>
</g>
</g>
<!-- Node5 -->
<g id="Node000005" class="node">
<title>Node5</title>
<g id="a_Node000005"><a xlink:href="skaitymas_8cpp.html" target="_top" xlink:title=" ">
<polygon fill="white" stroke="#666666" points="369.5,-19 282.5,-19 282.5,0 369.5,0 369.5,-19"/>
<text text-anchor="middle" x="326" y="-7" font-family="Helvetica,sans-Serif" font-size="10.00">skaitymas.cpp</text>
</a>
</g>
</g>
<!-- Node1&#45;&gt;Node5 -->
<g id="edge4_Node000001_Node000005" class="edge">
<title>Node1&#45;&gt;Node5</title>
<g id="a_edge4_Node000001_Node000005"><a xlink:title=" ">
<path fill="none" stroke="#63b8ff" d="M293.42,-47.24C301.66,-37.95 311.65,-26.68 318.38,-19.09"/>
<polygon fill="#63b8ff" stroke="#63b8ff" points="290.78,-44.94 286.76,-54.75 296.01,-49.59 290.78,-44.94"/>
</a>
</g>
</g>
<!-- Node6 -->
<g id="Node000006" class="node">
<title>Node6</title>
<g id="a_Node000006"><a xlink:href="spausdinam_8cpp.html" target="_top" xlink:title=" ">
<polygon fill="white" stroke="#666666" points="484,-19 388,-19 388,0 484,0 484,-19"/>
<text text-anchor="middle" x="436" y="-7" font-family="Helvetica,sans-Serif" font-size="10.00">spausdinam.cpp</text>
</a>
</g>
</g>
<!-- Node1&#45;&gt;Node6 -->
<g id="edge5_Node000001_Node000006" class="edge">
<title>Node1&#45;&gt;Node6</title>
<g id="a_edge5_Node000001_Node000006"><a xlink:title=" ">
<path fill="none" stroke="#63b8ff" d="M314.05,-51.67C343.32,-41.79 384.37,-27.93 410.58,-19.08"/>
<polygon fill="#63b8ff" stroke="#63b8ff" points="312.58,-48.47 304.22,-54.98 314.82,-55.1 312.58,-48.47"/>
</a>
</g>
</g>
<!-- Node7 -->
<g id="Node000007" class="node">
<title>Node7</title>
<g id="a_Node000007"><a xlink:href="tyrimas_8cpp.html" target="_top" xlink:title=" ">
<polygon fill="white" stroke="#666666" points="576,-19 502,-19 502,0 576,0 576,-19"/>
<text text-anchor="middle" x="539" y="-7" font-family="Helvetica,sans-Serif" font-size="10.00">tyrimas.cpp</text>
</a>
</g>
</g>
<!-- Node1&#45;&gt;Node7 -->
<g id="edge6_Node000001_Node000007" class="edge">
<title>Node1&#45;&gt;Node7</title>
<g id="a_edge6_Node000001_Node000007"><a xlink:title=" ">
<path fill="none" stroke="#63b8ff" d="M315.26,-56.11C364.48,-46.08 452,-28.23 501.74,-18.1"/>
<polygon fill="#63b8ff" stroke="#63b8ff" points="314.46,-52.7 305.36,-58.13 315.86,-59.56 314.46,-52.7"/>
</a>
</g>
</g>
</g>
</svg>
