<?xml version="1.0" encoding="UTF-8" standalone="no"?>
<!DOCTYPE svg PUBLIC "-//W3C//DTD SVG 1.1//EN"
 "http://www.w3.org/Graphics/SVG/1.1/DTD/svg11.dtd">
<!-- Generated by graphviz version 2.42.4 (0)
 -->
<!-- Title: skaitomRanka Pages: 1 -->
<svg width="297pt" height="175pt"
 viewBox="0.00 0.00 297.00 175.00" xmlns="http://www.w3.org/2000/svg" xmlns:xlink="http://www.w3.org/1999/xlink">
<g id="graph0" class="graph" transform="scale(1 1) rotate(0) translate(4 171)">
<title>skaitomRanka</title>
<!-- Node1 -->
<g id="Node000001" class="node">
<title>Node1</title>
<g id="a_Node000001"><a xlink:title="Interaktyviai nuskaito vieno studento duomenis iš konsolės.">
<polygon fill="#999999" stroke="#666666" points="86,-93 0,-93 0,-74 86,-74 86,-93"/>
<text text-anchor="middle" x="43" y="-81" font-family="Helvetica,sans-Serif" font-size="10.00">skaitomRanka</text>
</a>
</g>
</g>
<!-- Node2 -->
<g id="Node000002" class="node">
<title>Node2</title>
<g id="a_Node000002"><a xlink:href="classStudentas.html#a556816c96b5fd37bf186e57da67e4f91" target="_top" xlink:title="Sugeneruoja atsitiktinius namų darbų ir egzamino pažymius.">
<polygon fill="white" stroke="#666666" points="289,-167 122,-167 122,-148 289,-148 289,-167"/>
<text text-anchor="middle" x="205.5" y="-155" font-family="Helvetica,sans-Serif" font-size="10.00">Studentas::parinktiAtsitiktinius</text>
</a>
</g>
</g>
<!-- Node1&#45;&gt;Node2 -->
<g id="edge1_Node000001_Node000002" class="edge">
<title>Node1&#45;&gt;Node2</title>
<g id="a_edge1_Node000001_Node000002"><a xlink:title=" ">
<path fill="none" stroke="#63b8ff" d="M54.72,-93.43C68.99,-106.07 95.5,-127.71 122,-139.5 126.65,-141.57 131.56,-143.41 136.57,-145.04"/>
<polygon fill="#63b8ff" stroke="#63b8ff" points="135.7,-148.44 146.29,-147.94 137.7,-141.73 135.7,-148.44"/>
</a>
</g>
</g>
<!-- Node3 -->
<g id="Node000003" class="node">
<title>Node3</title>
<g id="a_Node000003"><a xlink:href="classStudentas.html#a6d7f01ee88e3bb9a894ead1659090852" target="_top" xlink:title="Interaktyviai įveda namų darbų pažymius iš konsolės.">
<polygon fill="white" stroke="#666666" points="285,-130 126,-130 126,-111 285,-111 285,-130"/>
<text text-anchor="middle" x="205.5" y="-118" font-family="Helvetica,sans-Serif" font-size="10.00">Studentas::readNdInteractive</text>
</a>
</g>
</g>
<!-- Node1&#45;&gt;Node3 -->
<g id="edge2_Node000001_Node000003" class="edge">
<title>Node1&#45;&gt;Node3</title>
<g id="a_edge2_Node000001_Node000003"><a xlink:title=" ">
<path fill="none" stroke="#63b8ff" d="M82.44,-93.06C95.03,-96.14 109.1,-99.52 122,-102.5 131.02,-104.58 140.61,-106.73 149.94,-108.79"/>
<polygon fill="#63b8ff" stroke="#63b8ff" points="149.41,-112.26 159.93,-110.98 150.91,-105.42 149.41,-112.26"/>
</a>
</g>
</g>
<!-- Node4 -->
<g id="Node000004" class="node">
<title>Node4</title>
<g id="a_Node000004"><a xlink:href="classStudentas.html#a659d6bb3cfd109fe095a9a03eaea2667" target="_top" xlink:title="Nustato egzamino pažymį.">
<polygon fill="white" stroke="#666666" points="275.5,-93 135.5,-93 135.5,-74 275.5,-74 275.5,-93"/>
<text text-anchor="middle" x="205.5" y="-81" font-family="Helvetica,sans-Serif" font-size="10.00">Studentas::setEgzaminas</text>
</a>
</g>
</g>
<!-- Node1&#45;&gt;Node4 -->
<g id="edge3_Node000001_Node000004" class="edge">
<title>Node1&#45;&gt;Node4</title>
<g id="a_edge3_Node000001_Node000004"><a xlink:title=" ">
<path fill="none" stroke="#63b8ff" d="M86.17,-83.5C98.16,-83.5 111.63,-83.5 125.06,-83.5"/>
<polygon fill="#63b8ff" stroke="#63b8ff" points="125.31,-87 135.31,-83.5 125.31,-80 125.31,-87"/>
</a>
</g>
</g>
<!-- Node5 -->
<g id="Node000005" class="node">
<title>Node5</title>
<g id="a_Node000005"><a xlink:href="classStudentas.html#aa2f8644798ffa4396c35400dfb10ab23" target="_top" xlink:title="Nustato studento pavardę.">
<polygon fill="white" stroke="#666666" points="268,-56 143,-56 143,-37 268,-37 268,-56"/>
<text text-anchor="middle" x="205.5" y="-44" font-family="Helvetica,sans-Serif" font-size="10.00">Studentas::setPavarde</text>
</a>
</g>
</g>
<!-- Node1&#45;&gt;Node5 -->
<g id="edge4_Node000001_Node000005" class="edge">
<title>Node1&#45;&gt;Node5</title>
<g id="a_edge4_Node000001_Node000005"><a xlink:title=" ">
<path fill="none" stroke="#63b8ff" d="M85.29,-73.97C97.14,-71.23 110.08,-68.25 122,-65.5 131.99,-63.2 142.66,-60.74 152.9,-58.38"/>
<polygon fill="#63b8ff" stroke="#63b8ff" points="153.99,-61.72 162.95,-56.06 152.42,-54.9 153.99,-61.72"/>
</a>
</g>
</g>
<!-- Node6 -->
<g id="Node000006" class="node">
<title>Node6</title>
<g id="a_Node000006"><a xlink:href="classStudentas.html#a553cf719758f4821bbd6eeda454fdf03" target="_top" xlink:title="Nustato studento vardą.">
<polygon fill="white" stroke="#666666" points="265,-19 146,-19 146,0 265,0 265,-19"/>
<text text-anchor="middle" x="205.5" y="-7" font-family="Helvetica,sans-Serif" font-size="10.00">Studentas::setVardas</text>
</a>
</g>
</g>
<!-- Node1&#45;&gt;Node6 -->
<g id="edge5_Node000001_Node000006" class="edge">
<title>Node1&#45;&gt;Node6</title>
<g id="a_edge5_Node000001_Node000006"><a xlink:title=" ">
<path fill="none" stroke="#63b8ff" d="M54.78,-73.81C69.1,-61.44 95.68,-40.26 122,-28.5 127.64,-25.98 133.64,-23.78 139.75,-21.85"/>
<polygon fill="#63b8ff" stroke="#63b8ff" points="140.76,-25.21 149.38,-19.05 138.8,-18.48 140.76,-25.21"/>
</a>
</g>
</g>
</g>
</svg>
