<?xml version="1.0" encoding="UTF-8" standalone="no"?>
<!DOCTYPE svg PUBLIC "-//W3C//DTD SVG 1.1//EN"
 "http://www.w3.org/Graphics/SVG/1.1/DTD/svg11.dtd">
<!-- Generated by graphviz version 2.42.4 (0)
 -->
<!-- Title: rikiuotiStudentus Pages: 1 -->
<svg width="429pt" height="175pt"
 viewBox="0.00 0.00 429.00 175.00" xmlns="http://www.w3.org/2000/svg" xmlns:xlink="http://www.w3.org/1999/xlink">

<svg id="main" version="1.1" xmlns="http://www.w3.org/2000/svg" xmlns:xlink="http://www.w3.org/1999/xlink" xml:space="preserve" onload="init(evt)">
<style type="text/css"><![CDATA[
.node, .edge {opacity: 0.7;}
.node.selected, .edge.selected {opacity: 1;}
.edge:hover path { stroke: red; }
.edge:hover polygon { stroke: red; fill: red; }
]]></style>
<script type="application/ecmascript" xlink:href="svg.min.js"/>
<svg id="graph" class="graph">
<g id="graph0" class="graph" transform="scale(1 1) rotate(0) translate(4 171)">
<title>rikiuotiStudentus</title>
<!-- Node1 -->
<g id="Node000001" class="node">
<title>Node1</title>
<g id="a_Node000001"><a xlink:title="Interaktyviai prašo rikiavimo kriterijaus ir rikiuoja studentus.">
<polygon fill="#999999" stroke="#666666" points="100,-93 0,-93 0,-74 100,-74 100,-93"/>
<text text-anchor="middle" x="50" y="-81" font-family="Helvetica,sans-Serif" font-size="10.00">rikiuotiStudentus</text>
</a>
</g>
</g>
<!-- Node2 -->
<g id="Node000002" class="node">
<title>Node2</title>
<g id="a_Node000002"><a xlink:href="spausdinam_8cpp.html#aba4d2eddda9e028acf1b8c2faba126d2" target="_top" xlink:title="Rikiuoja studentus pagal nurodytą kriterijų (int kodas).">
<polygon fill="white" stroke="#666666" points="247,-93 136,-93 136,-74 247,-74 247,-93"/>
<text text-anchor="middle" x="191.5" y="-81" font-family="Helvetica,sans-Serif" font-size="10.00">surikiuotiStudentus</text>
</a>
</g>
</g>
<!-- Node1&#45;&gt;Node2 -->
<g id="edge1_Node000001_Node000002" class="edge">
<title>Node1&#45;&gt;Node2</title>
<g id="a_edge1_Node000001_Node000002"><a xlink:title=" ">
<path fill="none" stroke="#63b8ff" d="M100.18,-83.5C108.32,-83.5 116.88,-83.5 125.34,-83.5"/>
<polygon fill="#63b8ff" stroke="#63b8ff" points="125.58,-87 135.58,-83.5 125.58,-80 125.58,-87"/>
</a>
</g>
</g>
<!-- Node3 -->
<g id="Node000003" class="node">
<title>Node3</title>
<g id="a_Node000003"><a xlink:href="classStudentas.html#ab5f39edb91818c2fd0ec50e35cce4581" target="_top" xlink:title="Grąžina galutinį balą apskaičiuotą pagal medianą.">
<polygon fill="white" stroke="#666666" points="421,-167 283,-167 283,-148 421,-148 421,-167"/>
<text text-anchor="middle" x="352" y="-155" font-family="Helvetica,sans-Serif" font-size="10.00">Studentas::getgalrezMed</text>
</a>
</g>
</g>
<!-- Node2&#45;&gt;Node3 -->
<g id="edge2_Node000002_Node000003" class="edge">
<title>Node2&#45;&gt;Node3</title>
<g id="a_edge2_Node000002_Node000003"><a xlink:title=" ">
<path fill="none" stroke="#63b8ff" d="M205.32,-93.14C222.27,-105.49 253.47,-126.79 283,-139.5 287.65,-141.5 292.57,-143.33 297.56,-144.98"/>
<polygon fill="#63b8ff" stroke="#63b8ff" points="296.6,-148.34 307.19,-147.95 298.66,-141.65 296.6,-148.34"/>
</a>
</g>
</g>
<!-- Node4 -->
<g id="Node000004" class="node">
<title>Node4</title>
<g id="a_Node000004"><a xlink:href="classStudentas.html#a1325b10f479819956015190c8ba49cf0" target="_top" xlink:title="Grąžina galutinį balą apskaičiuotą pagal vidurkį.">
<polygon fill="white" stroke="#666666" points="418.5,-130 285.5,-130 285.5,-111 418.5,-111 418.5,-130"/>
<text text-anchor="middle" x="352" y="-118" font-family="Helvetica,sans-Serif" font-size="10.00">Studentas::getgalrezVid</text>
</a>
</g>
</g>
<!-- Node2&#45;&gt;Node4 -->
<g id="edge3_Node000002_Node000004" class="edge">
<title>Node2&#45;&gt;Node4</title>
<g id="a_edge3_Node000002_Node000004"><a xlink:title=" ">
<path fill="none" stroke="#63b8ff" d="M233.32,-93.03C253.67,-97.78 278.48,-103.57 300.06,-108.61"/>
<polygon fill="#63b8ff" stroke="#63b8ff" points="299.51,-112.07 310.05,-110.94 301.1,-105.26 299.51,-112.07"/>
</a>
</g>
</g>
<!-- Node5 -->
<g id="Node000005" class="node">
<title>Node5</title>
<g id="a_Node000005"><a xlink:href="classZmogus.html#a004b8eb8a80b2648e45026802b416cfd" target="_top" xlink:title=" ">
<polygon fill="white" stroke="#666666" points="410.5,-93 293.5,-93 293.5,-74 410.5,-74 410.5,-93"/>
<text text-anchor="middle" x="352" y="-81" font-family="Helvetica,sans-Serif" font-size="10.00">Zmogus::getPavarde</text>
</a>
</g>
</g>
<!-- Node2&#45;&gt;Node5 -->
<g id="edge4_Node000002_Node000005" class="edge">
<title>Node2&#45;&gt;Node5</title>
<g id="a_edge4_Node000002_Node000005"><a xlink:title=" ">
<path fill="none" stroke="#63b8ff" d="M247.05,-83.5C258.73,-83.5 271.21,-83.5 283.32,-83.5"/>
<polygon fill="#63b8ff" stroke="#63b8ff" points="283.38,-87 293.38,-83.5 283.38,-80 283.38,-87"/>
</a>
</g>
</g>
<!-- Node6 -->
<g id="Node000006" class="node">
<title>Node6</title>
<g id="a_Node000006"><a xlink:href="classZmogus.html#af00bd4ee050cb93b59de8a48340049d7" target="_top" xlink:title=" ">
<polygon fill="white" stroke="#666666" points="407.5,-56 296.5,-56 296.5,-37 407.5,-37 407.5,-56"/>
<text text-anchor="middle" x="352" y="-44" font-family="Helvetica,sans-Serif" font-size="10.00">Zmogus::getVardas</text>
</a>
</g>
</g>
<!-- Node2&#45;&gt;Node6 -->
<g id="edge5_Node000002_Node000006" class="edge">
<title>Node2&#45;&gt;Node6</title>
<g id="a_edge5_Node000002_Node000006"><a xlink:title=" ">
<path fill="none" stroke="#63b8ff" d="M233.32,-73.97C253.67,-69.22 278.48,-63.43 300.06,-58.39"/>
<polygon fill="#63b8ff" stroke="#63b8ff" points="301.1,-61.74 310.05,-56.06 299.51,-54.93 301.1,-61.74"/>
</a>
</g>
</g>
<!-- Node7 -->
<g id="Node000007" class="node">
<title>Node7</title>
<g id="a_Node000007"><a xlink:href="konteineris_8h.html#a78a77737a29b58defd2e834d981f3771" target="_top" xlink:title="Rikiavimo specializacija std::list konteineriui.">
<polygon fill="white" stroke="#666666" points="397.5,-19 306.5,-19 306.5,0 397.5,0 397.5,-19"/>
<text text-anchor="middle" x="352" y="-7" font-family="Helvetica,sans-Serif" font-size="10.00">konteinerioSort</text>
</a>
</g>
</g>
<!-- Node2&#45;&gt;Node7 -->
<g id="edge6_Node000002_Node000007" class="edge">
<title>Node2&#45;&gt;Node7</title>
<g id="a_edge6_Node000002_Node000007"><a xlink:title=" ">
<path fill="none" stroke="#63b8ff" d="M205.67,-73.9C222.75,-61.83 253.82,-41.16 283,-28.5 288.4,-26.16 294.17,-24.02 299.98,-22.1"/>
<polygon fill="#63b8ff" stroke="#63b8ff" points="301.22,-25.38 309.74,-19.08 299.15,-18.7 301.22,-25.38"/>
</a>
</g>
</g>
</g>
</svg>
</svg>

<style type='text/css'>
<![CDATA[
[data-mouse-over-selected='false'] { opacity: 0.7; }
[data-mouse-over-selected='true']  { opacity: 1.0; }
]]>
</style>
<script type="application/ecmascript"><![CDATA[
document.addEventListener('DOMContentLoaded', (event) => {
  highlightEdges();
  highlightAdjacentNodes();
});
]]></script>
</svg>
