<?xml version="1.0" encoding="UTF-8" standalone="no"?>
<!DOCTYPE svg PUBLIC "-//W3C//DTD SVG 1.1//EN"
 "http://www.w3.org/Graphics/SVG/1.1/DTD/svg11.dtd">
<!-- Generated by graphviz version 2.42.4 (0)
 -->
<!-- Title: testuotiKopijavimoPriskyrima Pages: 1 -->
<svg width="548pt" height="249pt"
 viewBox="0.00 0.00 548.00 249.00" xmlns="http://www.w3.org/2000/svg" xmlns:xlink="http://www.w3.org/1999/xlink">
<g id="graph0" class="graph" transform="scale(1 1) rotate(0) translate(4 245)">
<title>testuotiKopijavimoPriskyrima</title>
<!-- Node1 -->
<g id="Node000001" class="node">
<title>Node1</title>
<g id="a_Node000001"><a xlink:title=" ">
<polygon fill="#999999" stroke="#666666" points="161,-130 0,-130 0,-111 161,-111 161,-130"/>
<text text-anchor="middle" x="80.5" y="-118" font-family="Helvetica,sans-Serif" font-size="10.00">testuotiKopijavimoPriskyrima</text>
</a>
</g>
</g>
<!-- Node2 -->
<g id="Node000002" class="node">
<title>Node2</title>
<g id="a_Node000002"><a xlink:href="classStudentas.html#abe38c118e8e899b4de681f1d12adceab" target="_top" xlink:title="Grąžina egzamino pažymį.">
<polygon fill="white" stroke="#666666" points="337,-241 197,-241 197,-222 337,-222 337,-241"/>
<text text-anchor="middle" x="267" y="-229" font-family="Helvetica,sans-Serif" font-size="10.00">Studentas::getEgzaminas</text>
</a>
</g>
</g>
<!-- Node1&#45;&gt;Node2 -->
<g id="edge1_Node000001_Node000002" class="edge">
<title>Node1&#45;&gt;Node2</title>
<g id="a_edge1_Node000001_Node000002"><a xlink:title=" ">
<path fill="none" stroke="#63b8ff" d="M90.69,-130.27C109.06,-149.21 152.39,-191.04 197,-213.5 200.79,-215.41 204.81,-217.13 208.92,-218.68"/>
<polygon fill="#63b8ff" stroke="#63b8ff" points="208.03,-222.08 218.63,-221.99 210.29,-215.45 208.03,-222.08"/>
</a>
</g>
</g>
<!-- Node3 -->
<g id="Node000003" class="node">
<title>Node3</title>
<g id="a_Node000003"><a xlink:href="classStudentas.html#ab5f39edb91818c2fd0ec50e35cce4581" target="_top" xlink:title="Grąžina galutinį balą apskaičiuotą pagal medianą.">
<polygon fill="white" stroke="#666666" points="336,-204 198,-204 198,-185 336,-185 336,-204"/>
<text text-anchor="middle" x="267" y="-192" font-family="Helvetica,sans-Serif" font-size="10.00">Studentas::getgalrezMed</text>
</a>
</g>
</g>
<!-- Node1&#45;&gt;Node3 -->
<g id="edge2_Node000001_Node000003" class="edge">
<title>Node1&#45;&gt;Node3</title>
<g id="a_edge2_Node000001_Node000003"><a xlink:title=" ">
<path fill="none" stroke="#63b8ff" d="M98.64,-130.14C120.8,-142.28 160.83,-163.16 197,-176.5 202.51,-178.53 208.34,-180.43 214.19,-182.17"/>
<polygon fill="#63b8ff" stroke="#63b8ff" points="213.42,-185.59 224,-184.95 215.33,-178.85 213.42,-185.59"/>
</a>
</g>
</g>
<!-- Node4 -->
<g id="Node000004" class="node">
<title>Node4</title>
<g id="a_Node000004"><a xlink:href="classStudentas.html#a1325b10f479819956015190c8ba49cf0" target="_top" xlink:title="Grąžina galutinį balą apskaičiuotą pagal vidurkį.">
<polygon fill="white" stroke="#666666" points="333.5,-167 200.5,-167 200.5,-148 333.5,-148 333.5,-167"/>
<text text-anchor="middle" x="267" y="-155" font-family="Helvetica,sans-Serif" font-size="10.00">Studentas::getgalrezVid</text>
</a>
</g>
</g>
<!-- Node1&#45;&gt;Node4 -->
<g id="edge3_Node000001_Node000004" class="edge">
<title>Node1&#45;&gt;Node4</title>
<g id="a_edge3_Node000001_Node000004"><a xlink:title=" ">
<path fill="none" stroke="#63b8ff" d="M129.01,-130.03C153.24,-134.89 182.89,-140.83 208.41,-145.95"/>
<polygon fill="#63b8ff" stroke="#63b8ff" points="207.83,-149.4 218.33,-147.94 209.21,-142.54 207.83,-149.4"/>
</a>
</g>
</g>
<!-- Node5 -->
<g id="Node000005" class="node">
<title>Node5</title>
<g id="a_Node000005"><a xlink:href="classStudentas.html#a72ad9cbcac7d53cefe587120d379a78b" target="_top" xlink:title="Grąžina namų darbų pažymių vektorių (tik skaitymui).">
<polygon fill="white" stroke="#666666" points="318,-130 216,-130 216,-111 318,-111 318,-130"/>
<text text-anchor="middle" x="267" y="-118" font-family="Helvetica,sans-Serif" font-size="10.00">Studentas::getND</text>
</a>
</g>
</g>
<!-- Node1&#45;&gt;Node5 -->
<g id="edge4_Node000001_Node000005" class="edge">
<title>Node1&#45;&gt;Node5</title>
<g id="a_edge4_Node000001_Node000005"><a xlink:title=" ">
<path fill="none" stroke="#63b8ff" d="M161.08,-120.5C176.07,-120.5 191.52,-120.5 205.79,-120.5"/>
<polygon fill="#63b8ff" stroke="#63b8ff" points="205.96,-124 215.96,-120.5 205.96,-117 205.96,-124"/>
</a>
</g>
</g>
<!-- Node6 -->
<g id="Node000006" class="node">
<title>Node6</title>
<g id="a_Node000006"><a xlink:href="classZmogus.html#a004b8eb8a80b2648e45026802b416cfd" target="_top" xlink:title=" ">
<polygon fill="white" stroke="#666666" points="325.5,-93 208.5,-93 208.5,-74 325.5,-74 325.5,-93"/>
<text text-anchor="middle" x="267" y="-81" font-family="Helvetica,sans-Serif" font-size="10.00">Zmogus::getPavarde</text>
</a>
</g>
</g>
<!-- Node1&#45;&gt;Node6 -->
<g id="edge5_Node000001_Node000006" class="edge">
<title>Node1&#45;&gt;Node6</title>
<g id="a_edge5_Node000001_Node000006"><a xlink:title=" ">
<path fill="none" stroke="#63b8ff" d="M129.01,-110.97C153.24,-106.11 182.89,-100.17 208.41,-95.05"/>
<polygon fill="#63b8ff" stroke="#63b8ff" points="209.21,-98.46 218.33,-93.06 207.83,-91.6 209.21,-98.46"/>
</a>
</g>
</g>
<!-- Node7 -->
<g id="Node000007" class="node">
<title>Node7</title>
<g id="a_Node000007"><a xlink:href="classZmogus.html#af00bd4ee050cb93b59de8a48340049d7" target="_top" xlink:title=" ">
<polygon fill="white" stroke="#666666" points="322.5,-56 211.5,-56 211.5,-37 322.5,-37 322.5,-56"/>
<text text-anchor="middle" x="267" y="-44" font-family="Helvetica,sans-Serif" font-size="10.00">Zmogus::getVardas</text>
</a>
</g>
</g>
<!-- Node1&#45;&gt;Node7 -->
<g id="edge6_Node000001_Node000007" class="edge">
<title>Node1&#45;&gt;Node7</title>
<g id="a_edge6_Node000001_Node000007"><a xlink:title=" ">
<path fill="none" stroke="#63b8ff" d="M99.08,-110.93C121.37,-99.08 161.2,-78.83 197,-65.5 203.34,-63.14 210.1,-60.92 216.82,-58.9"/>
<polygon fill="#63b8ff" stroke="#63b8ff" points="217.94,-62.22 226.57,-56.07 215.99,-55.49 217.94,-62.22"/>
</a>
</g>
</g>
<!-- Node8 -->
<g id="Node000008" class="node">
<title>Node8</title>
<g id="a_Node000008"><a xlink:href="unit__tests_8cpp.html#ad5555e66227747ad99e35953b7bdbe25" target="_top" xlink:title="Sukuria testinį studentą iš srauto eilutės.">
<polygon fill="white" stroke="#666666" points="329.5,-19 204.5,-19 204.5,0 329.5,0 329.5,-19"/>
<text text-anchor="middle" x="267" y="-7" font-family="Helvetica,sans-Serif" font-size="10.00">sukurtiTestiniStudenta</text>
</a>
</g>
</g>
<!-- Node1&#45;&gt;Node8 -->
<g id="edge7_Node000001_Node000008" class="edge">
<title>Node1&#45;&gt;Node8</title>
<g id="a_edge7_Node000001_Node000008"><a xlink:title=" ">
<path fill="none" stroke="#63b8ff" d="M90.74,-110.89C109.2,-92.26 152.67,-51.05 197,-28.5 201.52,-26.2 206.36,-24.15 211.29,-22.33"/>
<polygon fill="#63b8ff" stroke="#63b8ff" points="212.48,-25.62 220.84,-19.1 210.24,-18.99 212.48,-25.62"/>
</a>
</g>
</g>
<!-- Node9 -->
<g id="Node000009" class="node">
<title>Node9</title>
<g id="a_Node000009"><a xlink:href="classStudentas.html#a994a9edb8000f03b9fbb7a4f07c7d8d8" target="_top" xlink:title="Apskaičiuoja galutinį įvertinimą (vidurkio ir medianos variantus).">
<polygon fill="white" stroke="#666666" points="540,-19 373,-19 373,0 540,0 540,-19"/>
<text text-anchor="middle" x="456.5" y="-7" font-family="Helvetica,sans-Serif" font-size="10.00">Studentas::suskaiciuotiGalutini</text>
</a>
</g>
</g>
<!-- Node8&#45;&gt;Node9 -->
<g id="edge8_Node000008_Node000009" class="edge">
<title>Node8&#45;&gt;Node9</title>
<g id="a_edge8_Node000008_Node000009"><a xlink:title=" ">
<path fill="none" stroke="#63b8ff" d="M329.65,-9.5C340.2,-9.5 351.35,-9.5 362.5,-9.5"/>
<polygon fill="#63b8ff" stroke="#63b8ff" points="362.71,-13 372.71,-9.5 362.71,-6 362.71,-13"/>
</a>
</g>
</g>
</g>
</svg>
