<?xml version="1.0" encoding="UTF-8" standalone="no"?>
<!DOCTYPE svg PUBLIC "-//W3C//DTD SVG 1.1//EN"
 "http://www.w3.org/Graphics/SVG/1.1/DTD/svg11.dtd">
<!-- Generated by graphviz version 2.42.4 (0)
 -->
<!-- Title: vykdytiTestus Pages: 1 -->
<!--zoomable 394 -->

<svg id="main" version="1.1" xmlns="http://www.w3.org/2000/svg" xmlns:xlink="http://www.w3.org/1999/xlink" xml:space="preserve" onload="init(evt)">
<style type="text/css"><![CDATA[
.node, .edge {opacity: 0.7;}
.node.selected, .edge.selected {opacity: 1;}
.edge:hover path { stroke: red; }
.edge:hover polygon { stroke: red; fill: red; }
]]></style>

<defs>
  <circle id="rim" cx="0" cy="0" r="7"/>
  <circle id="rim2" cx="0" cy="0" r="3.5"/>
  <g id="zoomPlus">
    <use xlink:href="#rim" fill="#404040"><set attributeName="fill" to="#808080" begin="zoomplus.mouseover" end="zoomplus.mouseout"/></use>
    <path d="M-4,0h8M0,-4v8" fill="none" stroke="white" stroke-width="1.5" pointer-events="none"/>
  </g>
  <g id="zoomMin">
    <use xlink:href="#rim" fill="#404040"><set attributeName="fill" to="#808080" begin="zoomminus.mouseover" end="zoomminus.mouseout"/></use>
    <path d="M-4,0h8" fill="none" stroke="white" stroke-width="1.5" pointer-events="none"/>
  </g>
  <g id="arrowUp" transform="translate(30 24)">
    <use xlink:href="#rim"/>
    <path pointer-events="none" fill="none" stroke="white" stroke-width="1.5" d="M0,-3.0v7 M-2.5,-0.5L0,-3.0L2.5,-0.5"/>
  </g>
  <g id="arrowRight" transform="rotate(90) translate(36 -43)">
    <use xlink:href="#rim"/>
    <path pointer-events="none" fill="none" stroke="white" stroke-width="1.5" d="M0,-3.0v7 M-2.5,-0.5L0,-3.0L2.5,-0.5"/>
  </g>
  <g id="arrowDown" transform="rotate(180) translate(-30 -48)">
    <use xlink:href="#rim"/>
    <path pointer-events="none" fill="none" stroke="white" stroke-width="1.5" d="M0,-3.0v7 M-2.5,-0.5L0,-3.0L2.5,-0.5"/>
  </g>
  <g id="arrowLeft" transform="rotate(270) translate(-36 17)">
    <use xlink:href="#rim"/>
    <path pointer-events="none" fill="none" stroke="white" stroke-width="1.5" d="M0,-3.0v7 M-2.5,-0.5L0,-3.0L2.5,-0.5"/>
  </g>
  <g id="resetDef">
    <use xlink:href="#rim2" fill="#404040"><set attributeName="fill" to="#808080" begin="reset.mouseover" end="reset.mouseout"/></use>
  </g>
</defs>
<script type="application/ecmascript">
var viewWidth = 681;
var viewHeight = 394;
var sectionId = 'dynsection-1';
</script>
<script type="application/ecmascript" xlink:href="svg.min.js"/>
<svg id="graph" class="graph">
<g id="viewport">
<title>vykdytiTestus</title>
<!-- Node1 -->
<g id="Node000001" class="node">
<title>Node1</title>
<g id="a_Node000001"><a xlink:title=" ">
<polygon fill="#999999" stroke="#666666" points="84,-238.12 0,-238.12 0,-219.12 84,-219.12 84,-238.12"/>
<text text-anchor="middle" x="42" y="-226.12" font-family="Helvetica,sans-Serif" font-size="10.00">vykdytiTestus</text>
</a>
</g>
</g>
<!-- Node2 -->
<g id="Node000002" class="node">
<title>Node2</title>
<g id="a_Node000002"><a xlink:href="testas_8cpp.html#af0795b8e97d908a2f00597677222fac2" target="_top" xlink:title=" ">
<polygon fill="white" stroke="#666666" points="284.5,-164.12 129.5,-164.12 129.5,-145.12 284.5,-145.12 284.5,-164.12"/>
<text text-anchor="middle" x="207" y="-152.12" font-family="Helvetica,sans-Serif" font-size="10.00">testuotiDefaultKonstruktoriu</text>
</a>
</g>
</g>
<!-- Node1&#45;&gt;Node2 -->
<g id="edge1_Node000001_Node000002" class="edge">
<title>Node1&#45;&gt;Node2</title>
<g id="a_edge1_Node000001_Node000002"><a xlink:title=" ">
<path fill="none" stroke="#63b8ff" d="M53.07,-219.09C66.99,-206.46 93.41,-184.42 120,-172.62 124.67,-170.54 129.6,-168.71 134.63,-167.07"/>
<polygon fill="#63b8ff" stroke="#63b8ff" points="135.79,-170.38 144.39,-164.19 133.8,-163.67 135.79,-170.38"/>
</a>
</g>
</g>
<!-- Node10 -->
<g id="Node000010" class="node">
<title>Node10</title>
<g id="a_Node000010"><a xlink:href="testas_8cpp.html#afb8a38efa2d4acabf9b5a1c72d1ba626" target="_top" xlink:title=" ">
<polygon fill="white" stroke="#666666" points="264.5,-349.12 149.5,-349.12 149.5,-330.12 264.5,-330.12 264.5,-349.12"/>
<text text-anchor="middle" x="207" y="-337.12" font-family="Helvetica,sans-Serif" font-size="10.00">testuotiDestruktoriu</text>
</a>
</g>
</g>
<!-- Node1&#45;&gt;Node10 -->
<g id="edge9_Node000001_Node000010" class="edge">
<title>Node1&#45;&gt;Node10</title>
<g id="a_edge9_Node000001_Node000010"><a xlink:title=" ">
<path fill="none" stroke="#63b8ff" d="M48.07,-238.35C58.64,-257.6 85,-300.5 120,-321.62 125.97,-325.22 132.54,-328.11 139.32,-330.42"/>
<polygon fill="#63b8ff" stroke="#63b8ff" points="138.77,-333.91 149.35,-333.42 140.77,-327.2 138.77,-333.91"/>
</a>
</g>
</g>
<!-- Node13 -->
<g id="Node000013" class="node">
<title>Node13</title>
<g id="a_Node000013"><a xlink:href="testas_8cpp.html#a029c23e8b1279f64678ff0d16e3d7d40" target="_top" xlink:title=" ">
<polygon fill="white" stroke="#666666" points="278.5,-90.12 135.5,-90.12 135.5,-71.12 278.5,-71.12 278.5,-90.12"/>
<text text-anchor="middle" x="207" y="-78.12" font-family="Helvetica,sans-Serif" font-size="10.00">testuotiIstreamOperatoriu</text>
</a>
</g>
</g>
<!-- Node1&#45;&gt;Node13 -->
<g id="edge12_Node000001_Node000013" class="edge">
<title>Node1&#45;&gt;Node13</title>
<g id="a_edge12_Node000001_Node000013"><a xlink:title=" ">
<path fill="none" stroke="#63b8ff" d="M45.74,-218.92C53.2,-194.45 76.27,-129.91 120,-98.62 121.91,-97.25 123.91,-95.98 125.97,-94.8"/>
<polygon fill="#63b8ff" stroke="#63b8ff" points="127.93,-97.74 135.38,-90.21 124.86,-91.45 127.93,-97.74"/>
</a>
</g>
</g>
<!-- Node14 -->
<g id="Node000014" class="node">
<title>Node14</title>
<g id="a_Node000014"><a xlink:href="testas_8cpp.html#a8a5a7da36716b22c613e0cfa68c42e1c" target="_top" xlink:title=" ">
<polygon fill="white" stroke="#666666" points="294,-275.12 120,-275.12 120,-256.12 294,-256.12 294,-275.12"/>
<text text-anchor="middle" x="207" y="-263.12" font-family="Helvetica,sans-Serif" font-size="10.00">testuotiKopijavimoKonstruktoriu</text>
</a>
</g>
</g>
<!-- Node1&#45;&gt;Node14 -->
<g id="edge19_Node000001_Node000014" class="edge">
<title>Node1&#45;&gt;Node14</title>
<g id="a_edge19_Node000001_Node000014"><a xlink:title=" ">
<path fill="none" stroke="#63b8ff" d="M83.34,-238.15C95.15,-240.91 108.09,-243.91 120,-246.62 130.4,-248.98 141.51,-251.47 152.17,-253.83"/>
<polygon fill="#63b8ff" stroke="#63b8ff" points="151.71,-257.31 162.23,-256.05 153.22,-250.48 151.71,-257.31"/>
</a>
</g>
</g>
<!-- Node16 -->
<g id="Node000016" class="node">
<title>Node16</title>
<g id="a_Node000016"><a xlink:href="testas_8cpp.html#a2004eb505d4b8f7ced0e73394dfb8f4f" target="_top" xlink:title=" ">
<polygon fill="white" stroke="#666666" points="287.5,-238.12 126.5,-238.12 126.5,-219.12 287.5,-219.12 287.5,-238.12"/>
<text text-anchor="middle" x="207" y="-226.12" font-family="Helvetica,sans-Serif" font-size="10.00">testuotiKopijavimoPriskyrima</text>
</a>
</g>
</g>
<!-- Node1&#45;&gt;Node16 -->
<g id="edge28_Node000001_Node000016" class="edge">
<title>Node1&#45;&gt;Node16</title>
<g id="a_edge28_Node000001_Node000016"><a xlink:title=" ">
<path fill="none" stroke="#63b8ff" d="M84.13,-228.62C94.02,-228.62 104.98,-228.62 116.14,-228.62"/>
<polygon fill="#63b8ff" stroke="#63b8ff" points="116.43,-232.12 126.43,-228.62 116.43,-225.12 116.43,-232.12"/>
</a>
</g>
</g>
<!-- Node17 -->
<g id="Node000017" class="node">
<title>Node17</title>
<g id="a_Node000017"><a xlink:href="testas_8cpp.html#af9afec580e7b23142c6f4d093c46cd18" target="_top" xlink:title=" ">
<polygon fill="white" stroke="#666666" points="281,-386.12 133,-386.12 133,-367.12 281,-367.12 281,-386.12"/>
<text text-anchor="middle" x="207" y="-374.12" font-family="Helvetica,sans-Serif" font-size="10.00">testuotiOstreamOperatoriu</text>
</a>
</g>
</g>
<!-- Node1&#45;&gt;Node17 -->
<g id="edge36_Node000001_Node000017" class="edge">
<title>Node1&#45;&gt;Node17</title>
<g id="a_edge36_Node000001_Node000017"><a xlink:title=" ">
<path fill="none" stroke="#63b8ff" d="M45.74,-238.31C53.2,-262.79 76.27,-327.32 120,-358.62 121.91,-359.99 123.91,-361.26 125.97,-362.44"/>
<polygon fill="#63b8ff" stroke="#63b8ff" points="124.86,-365.79 135.38,-367.03 127.93,-359.5 124.86,-365.79"/>
</a>
</g>
</g>
<!-- Node18 -->
<g id="Node000018" class="node">
<title>Node18</title>
<g id="a_Node000018"><a xlink:href="testas_8cpp.html#a326b0b0101acfb38443e5b9e2ce88720" target="_top" xlink:title=" ">
<polygon fill="white" stroke="#666666" points="291,-201.12 123,-201.12 123,-182.12 291,-182.12 291,-201.12"/>
<text text-anchor="middle" x="207" y="-189.12" font-family="Helvetica,sans-Serif" font-size="10.00">testuotiPerkelimoKonstruktoriu</text>
</a>
</g>
</g>
<!-- Node1&#45;&gt;Node18 -->
<g id="edge38_Node000001_Node000018" class="edge">
<title>Node1&#45;&gt;Node18</title>
<g id="a_edge38_Node000001_Node000018"><a xlink:title=" ">
<path fill="none" stroke="#63b8ff" d="M80.53,-219.07C93.06,-215.96 107.11,-212.56 120,-209.62 129.38,-207.48 139.36,-205.3 149.08,-203.23"/>
<polygon fill="#63b8ff" stroke="#63b8ff" points="150.01,-206.61 159.07,-201.12 148.56,-199.77 150.01,-206.61"/>
</a>
</g>
</g>
<!-- Node19 -->
<g id="Node000019" class="node">
<title>Node19</title>
<g id="a_Node000019"><a xlink:href="testas_8cpp.html#acbc7a298bf5e8af17612dcf6d63f0920" target="_top" xlink:title=" ">
<polygon fill="white" stroke="#666666" points="284.5,-312.12 129.5,-312.12 129.5,-293.12 284.5,-293.12 284.5,-312.12"/>
<text text-anchor="middle" x="207" y="-300.12" font-family="Helvetica,sans-Serif" font-size="10.00">testuotiPerkelimoPriskyrima</text>
</a>
</g>
</g>
<!-- Node1&#45;&gt;Node19 -->
<g id="edge46_Node000001_Node000019" class="edge">
<title>Node1&#45;&gt;Node19</title>
<g id="a_edge46_Node000001_Node000019"><a xlink:title=" ">
<path fill="none" stroke="#63b8ff" d="M53.6,-238.35C67.7,-250.76 93.89,-271.99 120,-283.62 125.68,-286.15 131.73,-288.35 137.89,-290.27"/>
<polygon fill="#63b8ff" stroke="#63b8ff" points="137.03,-293.67 147.61,-293.06 138.96,-286.94 137.03,-293.67"/>
</a>
</g>
</g>
<!-- Node20 -->
<g id="Node000020" class="node">
<title>Node20</title>
<g id="a_Node000020"><a xlink:href="testas_8cpp.html#aedb355f6a889a35dc94703016d84240a" target="_top" xlink:title=" ">
<polygon fill="white" stroke="#666666" points="285.5,-127.12 128.5,-127.12 128.5,-108.12 285.5,-108.12 285.5,-127.12"/>
<text text-anchor="middle" x="207" y="-115.12" font-family="Helvetica,sans-Serif" font-size="10.00">testuotiSrautiniKonstruktoriu</text>
</a>
</g>
</g>
<!-- Node1&#45;&gt;Node20 -->
<g id="edge53_Node000001_Node000020" class="edge">
<title>Node1&#45;&gt;Node20</title>
<g id="a_edge53_Node000001_Node000020"><a xlink:title=" ">
<path fill="none" stroke="#63b8ff" d="M48.07,-218.89C58.64,-199.64 85,-156.73 120,-135.62 122.81,-133.92 125.75,-132.39 128.79,-130.99"/>
<polygon fill="#63b8ff" stroke="#63b8ff" points="130.16,-134.21 138.13,-127.23 127.55,-127.72 130.16,-134.21"/>
</a>
</g>
</g>
<!-- Node3 -->
<g id="Node000003" class="node">
<title>Node3</title>
<g id="a_Node000003"><a xlink:href="classStudentas.html#abe38c118e8e899b4de681f1d12adceab" target="_top" xlink:title="Grąžina egzamino pažymį.">
<polygon fill="white" stroke="#666666" points="470,-146.12 330,-146.12 330,-127.12 470,-127.12 470,-146.12"/>
<text text-anchor="middle" x="400" y="-134.12" font-family="Helvetica,sans-Serif" font-size="10.00">Studentas::getEgzaminas</text>
</a>
</g>
</g>
<!-- Node2&#45;&gt;Node3 -->
<g id="edge2_Node000002_Node000003" class="edge">
<title>Node2&#45;&gt;Node3</title>
<g id="a_edge2_Node000002_Node000003"><a xlink:title=" ">
<path fill="none" stroke="#63b8ff" d="M284.59,-147.4C296.15,-146.31 308.09,-145.19 319.7,-144.09"/>
<polygon fill="#63b8ff" stroke="#63b8ff" points="320.18,-147.56 329.81,-143.14 319.52,-140.59 320.18,-147.56"/>
</a>
</g>
</g>
<!-- Node4 -->
<g id="Node000004" class="node">
<title>Node4</title>
<g id="a_Node000004"><a xlink:href="classStudentas.html#ab5f39edb91818c2fd0ec50e35cce4581" target="_top" xlink:title="Grąžina galutinį balą apskaičiuotą pagal medianą.">
<polygon fill="white" stroke="#666666" points="469,-294.12 331,-294.12 331,-275.12 469,-275.12 469,-294.12"/>
<text text-anchor="middle" x="400" y="-282.12" font-family="Helvetica,sans-Serif" font-size="10.00">Studentas::getgalrezMed</text>
</a>
</g>
</g>
<!-- Node2&#45;&gt;Node4 -->
<g id="edge3_Node000002_Node000004" class="edge">
<title>Node2&#45;&gt;Node4</title>
<g id="a_edge3_Node000002_Node000004"><a xlink:title=" ">
<path fill="none" stroke="#63b8ff" d="M280.93,-164.18C285.63,-166.48 290.05,-169.26 294,-172.62 327.79,-201.3 297.12,-235.89 330,-265.62 331.72,-267.17 333.56,-268.61 335.49,-269.92"/>
<polygon fill="#63b8ff" stroke="#63b8ff" points="334.01,-273.11 344.44,-274.98 337.45,-267.01 334.01,-273.11"/>
</a>
</g>
</g>
<!-- Node5 -->
<g id="Node000005" class="node">
<title>Node5</title>
<g id="a_Node000005"><a xlink:href="classStudentas.html#a1325b10f479819956015190c8ba49cf0" target="_top" xlink:title="Grąžina galutinį balą apskaičiuotą pagal vidurkį.">
<polygon fill="white" stroke="#666666" points="466.5,-257.12 333.5,-257.12 333.5,-238.12 466.5,-238.12 466.5,-257.12"/>
<text text-anchor="middle" x="400" y="-245.12" font-family="Helvetica,sans-Serif" font-size="10.00">Studentas::getgalrezVid</text>
</a>
</g>
</g>
<!-- Node2&#45;&gt;Node5 -->
<g id="edge4_Node000002_Node000005" class="edge">
<title>Node2&#45;&gt;Node5</title>
<g id="a_edge4_Node000002_Node000005"><a xlink:title=" ">
<path fill="none" stroke="#63b8ff" d="M278.06,-164.22C283.7,-166.48 289.1,-169.24 294,-172.62 318.37,-189.39 306.16,-211.09 330,-228.62 332.65,-230.57 335.5,-232.32 338.46,-233.89"/>
<polygon fill="#63b8ff" stroke="#63b8ff" points="337.1,-237.12 347.66,-238.08 340.01,-230.75 337.1,-237.12"/>
</a>
</g>
</g>
<!-- Node6 -->
<g id="Node000006" class="node">
<title>Node6</title>
<g id="a_Node000006"><a xlink:href="classStudentas.html#a72ad9cbcac7d53cefe587120d379a78b" target="_top" xlink:title="Grąžina namų darbų pažymių vektorių (tik skaitymui).">
<polygon fill="white" stroke="#666666" points="451,-220.12 349,-220.12 349,-201.12 451,-201.12 451,-220.12"/>
<text text-anchor="middle" x="400" y="-208.12" font-family="Helvetica,sans-Serif" font-size="10.00">Studentas::getND</text>
</a>
</g>
</g>
<!-- Node2&#45;&gt;Node6 -->
<g id="edge5_Node000002_Node000006" class="edge">
<title>Node2&#45;&gt;Node6</title>
<g id="a_edge5_Node000002_Node000006"><a xlink:title=" ">
<path fill="none" stroke="#63b8ff" d="M265.06,-164.22C274.85,-166.53 284.82,-169.31 294,-172.62 311.02,-178.75 313.18,-184.95 330,-191.62 335.99,-193.99 342.38,-196.18 348.77,-198.17"/>
<polygon fill="#63b8ff" stroke="#63b8ff" points="348.16,-201.64 358.74,-201.11 350.15,-194.92 348.16,-201.64"/>
</a>
</g>
</g>
<!-- Node7 -->
<g id="Node000007" class="node">
<title>Node7</title>
<g id="a_Node000007"><a xlink:href="classZmogus.html#a004b8eb8a80b2648e45026802b416cfd" target="_top" xlink:title=" ">
<polygon fill="white" stroke="#666666" points="458.5,-109.12 341.5,-109.12 341.5,-90.12 458.5,-90.12 458.5,-109.12"/>
<text text-anchor="middle" x="400" y="-97.12" font-family="Helvetica,sans-Serif" font-size="10.00">Zmogus::getPavarde</text>
</a>
</g>
</g>
<!-- Node2&#45;&gt;Node7 -->
<g id="edge6_Node000002_Node000007" class="edge">
<title>Node2&#45;&gt;Node7</title>
<g id="a_edge6_Node000002_Node000007"><a xlink:title=" ">
<path fill="none" stroke="#63b8ff" d="M260.88,-145.09C271.97,-142.49 283.48,-139.35 294,-135.62 310.86,-129.64 313.25,-123.91 330,-117.62 335.42,-115.58 341.16,-113.69 346.93,-111.95"/>
<polygon fill="#63b8ff" stroke="#63b8ff" points="347.95,-115.3 356.6,-109.19 346.02,-108.57 347.95,-115.3"/>
</a>
</g>
</g>
<!-- Node8 -->
<g id="Node000008" class="node">
<title>Node8</title>
<g id="a_Node000008"><a xlink:href="classZmogus.html#af00bd4ee050cb93b59de8a48340049d7" target="_top" xlink:title=" ">
<polygon fill="white" stroke="#666666" points="455.5,-183.12 344.5,-183.12 344.5,-164.12 455.5,-164.12 455.5,-183.12"/>
<text text-anchor="middle" x="400" y="-171.12" font-family="Helvetica,sans-Serif" font-size="10.00">Zmogus::getVardas</text>
</a>
</g>
</g>
<!-- Node2&#45;&gt;Node8 -->
<g id="edge7_Node000002_Node000008" class="edge">
<title>Node2&#45;&gt;Node8</title>
<g id="a_edge7_Node000002_Node000008"><a xlink:title=" ">
<path fill="none" stroke="#63b8ff" d="M284.59,-162.24C301.02,-163.87 318.23,-165.58 334.16,-167.17"/>
<polygon fill="#63b8ff" stroke="#63b8ff" points="334.13,-170.68 344.43,-168.19 334.82,-163.72 334.13,-170.68"/>
</a>
</g>
</g>
<!-- Node9 -->
<g id="Node000009" class="node">
<title>Node9</title>
<g id="a_Node000009"><a xlink:href="classStudentas.html#ab4f6284b5d7e72788df52633239e5df2" target="_top" xlink:title="Grąžina namų darbų pažymių vidurkį.">
<polygon fill="white" stroke="#666666" points="463.5,-72.12 336.5,-72.12 336.5,-53.12 463.5,-53.12 463.5,-72.12"/>
<text text-anchor="middle" x="400" y="-60.12" font-family="Helvetica,sans-Serif" font-size="10.00">Studentas::getVidurkis</text>
</a>
</g>
</g>
<!-- Node2&#45;&gt;Node9 -->
<g id="edge8_Node000002_Node000009" class="edge">
<title>Node2&#45;&gt;Node9</title>
<g id="a_edge8_Node000002_Node000009"><a xlink:title=" ">
<path fill="none" stroke="#63b8ff" d="M275.86,-144.97C282.29,-142.51 288.46,-139.44 294,-135.62 318.04,-119.02 306.28,-97.67 330,-80.62 332.07,-79.13 334.25,-77.77 336.51,-76.52"/>
<polygon fill="#63b8ff" stroke="#63b8ff" points="338.03,-79.67 345.57,-72.23 335.03,-73.34 338.03,-79.67"/>
</a>
</g>
</g>
<!-- Node11 -->
<g id="Node000011" class="node">
<title>Node11</title>
<g id="a_Node000011"><a xlink:href="unit__tests_8cpp.html#ad5555e66227747ad99e35953b7bdbe25" target="_top" xlink:title="Sukuria testinį studentą iš srauto eilutės.">
<polygon fill="white" stroke="#666666" points="462.5,-368.12 337.5,-368.12 337.5,-349.12 462.5,-349.12 462.5,-368.12"/>
<text text-anchor="middle" x="400" y="-356.12" font-family="Helvetica,sans-Serif" font-size="10.00">sukurtiTestiniStudenta</text>
</a>
</g>
</g>
<!-- Node10&#45;&gt;Node11 -->
<g id="edge10_Node000010_Node000011" class="edge">
<title>Node10&#45;&gt;Node11</title>
<g id="a_edge10_Node000010_Node000011"><a xlink:title=" ">
<path fill="none" stroke="#63b8ff" d="M264.53,-345.24C284.19,-347.2 306.52,-349.42 327.25,-351.48"/>
<polygon fill="#63b8ff" stroke="#63b8ff" points="326.98,-354.97 337.28,-352.48 327.67,-348 326.98,-354.97"/>
</a>
</g>
</g>
<!-- Node12 -->
<g id="Node000012" class="node">
<title>Node12</title>
<g id="a_Node000012"><a xlink:href="classStudentas.html#a994a9edb8000f03b9fbb7a4f07c7d8d8" target="_top" xlink:title="Apskaičiuoja galutinį įvertinimą (vidurkio ir medianos variantus).">
<polygon fill="white" stroke="#666666" points="673,-34.12 506,-34.12 506,-15.12 673,-15.12 673,-34.12"/>
<text text-anchor="middle" x="589.5" y="-22.12" font-family="Helvetica,sans-Serif" font-size="10.00">Studentas::suskaiciuotiGalutini</text>
</a>
</g>
</g>
<!-- Node11&#45;&gt;Node12 -->
<g id="edge11_Node000011_Node000012" class="edge">
<title>Node11&#45;&gt;Node12</title>
<g id="a_edge11_Node000011_Node000012"><a xlink:title=" ">
<path fill="none" stroke="#63b8ff" d="M457.28,-349.05C461.9,-346.79 466.23,-344.02 470,-340.62 560.81,-258.76 582.31,-100.41 587.16,-44.64"/>
<polygon fill="#63b8ff" stroke="#63b8ff" points="590.67,-44.61 587.96,-34.36 583.69,-44.06 590.67,-44.61"/>
</a>
</g>
</g>
<!-- Node13&#45;&gt;Node3 -->
<g id="edge13_Node000013_Node000003" class="edge">
<title>Node13&#45;&gt;Node3</title>
<g id="a_edge13_Node000013_Node000003"><a xlink:title=" ">
<path fill="none" stroke="#63b8ff" d="M265.06,-90.22C274.85,-92.53 284.82,-95.31 294,-98.62 311.02,-104.75 313.18,-110.95 330,-117.62 335.99,-119.99 342.38,-122.18 348.77,-124.17"/>
<polygon fill="#63b8ff" stroke="#63b8ff" points="348.16,-127.64 358.74,-127.11 350.15,-120.92 348.16,-127.64"/>
</a>
</g>
</g>
<!-- Node13&#45;&gt;Node5 -->
<g id="edge14_Node000013_Node000005" class="edge">
<title>Node13&#45;&gt;Node5</title>
<g id="a_edge14_Node000013_Node000005"><a xlink:title=" ">
<path fill="none" stroke="#63b8ff" d="M278.85,-88.52C284.39,-91.13 289.55,-94.44 294,-98.62 337.72,-139.64 287.58,-186.26 330,-228.62 331.45,-230.07 333,-231.41 334.63,-232.65"/>
<polygon fill="#63b8ff" stroke="#63b8ff" points="333.03,-235.77 343.37,-238.06 336.71,-229.82 333.03,-235.77"/>
</a>
</g>
</g>
<!-- Node13&#45;&gt;Node6 -->
<g id="edge15_Node000013_Node000006" class="edge">
<title>Node13&#45;&gt;Node6</title>
<g id="a_edge15_Node000013_Node000006"><a xlink:title=" ">
<path fill="none" stroke="#63b8ff" d="M278.84,-89.19C284.32,-91.67 289.46,-94.77 294,-98.62 327.79,-127.3 297.12,-161.89 330,-191.62 332.97,-194.31 336.29,-196.62 339.83,-198.61"/>
<polygon fill="#63b8ff" stroke="#63b8ff" points="338.43,-201.82 348.97,-202.91 341.41,-195.49 338.43,-201.82"/>
</a>
</g>
</g>
<!-- Node13&#45;&gt;Node7 -->
<g id="edge16_Node000013_Node000007" class="edge">
<title>Node13&#45;&gt;Node7</title>
<g id="a_edge16_Node000013_Node000007"><a xlink:title=" ">
<path fill="none" stroke="#63b8ff" d="M278.58,-87.64C295.65,-89.34 313.87,-91.15 330.83,-92.84"/>
<polygon fill="#63b8ff" stroke="#63b8ff" points="330.9,-96.36 341.2,-93.87 331.6,-89.4 330.9,-96.36"/>
</a>
</g>
</g>
<!-- Node13&#45;&gt;Node8 -->
<g id="edge17_Node000013_Node000008" class="edge">
<title>Node13&#45;&gt;Node8</title>
<g id="a_edge17_Node000013_Node000008"><a xlink:title=" ">
<path fill="none" stroke="#63b8ff" d="M278.06,-90.22C283.7,-92.48 289.1,-95.24 294,-98.62 318.37,-115.39 306.16,-137.09 330,-154.62 332.65,-156.57 335.5,-158.32 338.46,-159.89"/>
<polygon fill="#63b8ff" stroke="#63b8ff" points="337.1,-163.12 347.66,-164.08 340.01,-156.75 337.1,-163.12"/>
</a>
</g>
</g>
<!-- Node13&#45;&gt;Node12 -->
<g id="edge18_Node000013_Node000012" class="edge">
<title>Node13&#45;&gt;Node12</title>
<g id="a_edge18_Node000013_Node000012"><a xlink:title=" ">
<path fill="none" stroke="#63b8ff" d="M219.86,-70.93C240.64,-54.65 285.64,-22.44 330,-10.62 400.84,8.26 486.36,-2.6 539.09,-12.97"/>
<polygon fill="#63b8ff" stroke="#63b8ff" points="538.69,-16.46 549.18,-15.03 540.08,-9.6 538.69,-16.46"/>
</a>
</g>
</g>
<!-- Node14&#45;&gt;Node3 -->
<g id="edge20_Node000014_Node000003" class="edge">
<title>Node14&#45;&gt;Node3</title>
<g id="a_edge20_Node000014_Node000003"><a xlink:title=" ">
<path fill="none" stroke="#63b8ff" d="M279.27,-255.97C284.59,-253.47 289.58,-250.39 294,-246.62 327.37,-218.08 297.18,-183.78 330,-154.62 331.3,-153.46 332.67,-152.37 334.1,-151.36"/>
<polygon fill="#63b8ff" stroke="#63b8ff" points="335.93,-154.34 342.77,-146.25 332.38,-148.31 335.93,-154.34"/>
</a>
</g>
</g>
<!-- Node14&#45;&gt;Node4 -->
<g id="edge21_Node000014_Node000004" class="edge">
<title>Node14&#45;&gt;Node4</title>
<g id="a_edge21_Node000014_Node000004"><a xlink:title=" ">
<path fill="none" stroke="#63b8ff" d="M294,-274.17C302.9,-275.06 311.9,-275.95 320.71,-276.83"/>
<polygon fill="#63b8ff" stroke="#63b8ff" points="320.64,-280.34 330.93,-277.85 321.33,-273.37 320.64,-280.34"/>
</a>
</g>
</g>
<!-- Node14&#45;&gt;Node5 -->
<g id="edge22_Node000014_Node000005" class="edge">
<title>Node14&#45;&gt;Node5</title>
<g id="a_edge22_Node000014_Node000005"><a xlink:title=" ">
<path fill="none" stroke="#63b8ff" d="M294,-257.51C303.67,-256.6 313.47,-255.68 323.01,-254.78"/>
<polygon fill="#63b8ff" stroke="#63b8ff" points="323.6,-258.24 333.22,-253.82 322.94,-251.27 323.6,-258.24"/>
</a>
</g>
</g>
<!-- Node14&#45;&gt;Node6 -->
<g id="edge23_Node000014_Node000006" class="edge">
<title>Node14&#45;&gt;Node6</title>
<g id="a_edge23_Node000014_Node000006"><a xlink:title=" ">
<path fill="none" stroke="#63b8ff" d="M260.88,-256.09C271.97,-253.49 283.48,-250.35 294,-246.62 310.86,-240.64 313.25,-234.91 330,-228.62 335.42,-226.58 341.16,-224.69 346.93,-222.95"/>
<polygon fill="#63b8ff" stroke="#63b8ff" points="347.95,-226.3 356.6,-220.19 346.02,-219.57 347.95,-226.3"/>
</a>
</g>
</g>
<!-- Node14&#45;&gt;Node7 -->
<g id="edge24_Node000014_Node000007" class="edge">
<title>Node14&#45;&gt;Node7</title>
<g id="a_edge24_Node000014_Node000007"><a xlink:title=" ">
<path fill="none" stroke="#63b8ff" d="M280.52,-256.02C285.43,-253.5 290,-250.4 294,-246.62 337.23,-205.69 287.55,-159.35 330,-117.62 330.97,-116.67 331.98,-115.76 333.03,-114.9"/>
<polygon fill="#63b8ff" stroke="#63b8ff" points="335.29,-117.61 341.74,-109.19 331.46,-111.75 335.29,-117.61"/>
</a>
</g>
</g>
<!-- Node14&#45;&gt;Node8 -->
<g id="edge25_Node000014_Node000008" class="edge">
<title>Node14&#45;&gt;Node8</title>
<g id="a_edge25_Node000014_Node000008"><a xlink:title=" ">
<path fill="none" stroke="#63b8ff" d="M275.86,-255.97C282.29,-253.51 288.46,-250.44 294,-246.62 318.04,-230.02 306.28,-208.67 330,-191.62 332.07,-190.13 334.25,-188.77 336.51,-187.52"/>
<polygon fill="#63b8ff" stroke="#63b8ff" points="338.03,-190.67 345.57,-183.23 335.03,-184.34 338.03,-190.67"/>
</a>
</g>
</g>
<!-- Node14&#45;&gt;Node11 -->
<g id="edge27_Node000014_Node000011" class="edge">
<title>Node14&#45;&gt;Node11</title>
<g id="a_edge27_Node000014_Node000011"><a xlink:title=" ">
<path fill="none" stroke="#63b8ff" d="M278.09,-275.18C283.72,-277.45 289.11,-280.22 294,-283.62 318.61,-300.71 305.81,-322.93 330,-340.62 332.05,-342.12 334.22,-343.5 336.48,-344.76"/>
<polygon fill="#63b8ff" stroke="#63b8ff" points="334.98,-347.92 345.52,-349.08 338,-341.61 334.98,-347.92"/>
</a>
</g>
</g>
<!-- Node15 -->
<g id="Node000015" class="node">
<title>Node15</title>
<g id="a_Node000015"><a xlink:href="classStudentas.html#a553cf719758f4821bbd6eeda454fdf03" target="_top" xlink:title="Nustato studento vardą.">
<polygon fill="white" stroke="#666666" points="459.5,-331.12 340.5,-331.12 340.5,-312.12 459.5,-312.12 459.5,-331.12"/>
<text text-anchor="middle" x="400" y="-319.12" font-family="Helvetica,sans-Serif" font-size="10.00">Studentas::setVardas</text>
</a>
</g>
</g>
<!-- Node14&#45;&gt;Node15 -->
<g id="edge26_Node000014_Node000015" class="edge">
<title>Node14&#45;&gt;Node15</title>
<g id="a_edge26_Node000014_Node000015"><a xlink:title=" ">
<path fill="none" stroke="#63b8ff" d="M265.06,-275.22C274.85,-277.53 284.82,-280.31 294,-283.62 311.02,-289.75 313.18,-295.95 330,-302.62 335.99,-304.99 342.38,-307.18 348.77,-309.17"/>
<polygon fill="#63b8ff" stroke="#63b8ff" points="348.16,-312.64 358.74,-312.11 350.15,-305.92 348.16,-312.64"/>
</a>
</g>
</g>
<!-- Node16&#45;&gt;Node3 -->
<g id="edge29_Node000016_Node000003" class="edge">
<title>Node16&#45;&gt;Node3</title>
<g id="a_edge29_Node000016_Node000003"><a xlink:title=" ">
<path fill="none" stroke="#63b8ff" d="M275.86,-218.97C282.29,-216.51 288.46,-213.44 294,-209.62 318.04,-193.02 306.28,-171.67 330,-154.62 332.07,-153.13 334.25,-151.77 336.51,-150.52"/>
<polygon fill="#63b8ff" stroke="#63b8ff" points="338.03,-153.67 345.57,-146.23 335.03,-147.34 338.03,-153.67"/>
</a>
</g>
</g>
<!-- Node16&#45;&gt;Node4 -->
<g id="edge30_Node000016_Node000004" class="edge">
<title>Node16&#45;&gt;Node4</title>
<g id="a_edge30_Node000016_Node000004"><a xlink:title=" ">
<path fill="none" stroke="#63b8ff" d="M265.06,-238.22C274.85,-240.53 284.82,-243.31 294,-246.62 311.02,-252.75 313.18,-258.95 330,-265.62 335.99,-267.99 342.38,-270.18 348.77,-272.17"/>
<polygon fill="#63b8ff" stroke="#63b8ff" points="348.16,-275.64 358.74,-275.11 350.15,-268.92 348.16,-275.64"/>
</a>
</g>
</g>
<!-- Node16&#45;&gt;Node5 -->
<g id="edge31_Node000016_Node000005" class="edge">
<title>Node16&#45;&gt;Node5</title>
<g id="a_edge31_Node000016_Node000005"><a xlink:title=" ">
<path fill="none" stroke="#63b8ff" d="M287.62,-236.54C299.41,-237.71 311.54,-238.92 323.26,-240.08"/>
<polygon fill="#63b8ff" stroke="#63b8ff" points="323.13,-243.59 333.43,-241.09 323.82,-236.62 323.13,-243.59"/>
</a>
</g>
</g>
<!-- Node16&#45;&gt;Node6 -->
<g id="edge32_Node000016_Node000006" class="edge">
<title>Node16&#45;&gt;Node6</title>
<g id="a_edge32_Node000016_Node000006"><a xlink:title=" ">
<path fill="none" stroke="#63b8ff" d="M287.62,-221.11C304.66,-219.51 322.4,-217.84 338.58,-216.31"/>
<polygon fill="#63b8ff" stroke="#63b8ff" points="339.34,-219.76 348.97,-215.33 338.68,-212.79 339.34,-219.76"/>
</a>
</g>
</g>
<!-- Node16&#45;&gt;Node7 -->
<g id="edge33_Node000016_Node000007" class="edge">
<title>Node16&#45;&gt;Node7</title>
<g id="a_edge33_Node000016_Node000007"><a xlink:title=" ">
<path fill="none" stroke="#63b8ff" d="M279.27,-218.97C284.59,-216.47 289.58,-213.39 294,-209.62 327.37,-181.08 297.18,-146.78 330,-117.62 331.3,-116.46 332.67,-115.37 334.1,-114.36"/>
<polygon fill="#63b8ff" stroke="#63b8ff" points="335.93,-117.34 342.77,-109.25 332.38,-111.31 335.93,-117.34"/>
</a>
</g>
</g>
<!-- Node16&#45;&gt;Node8 -->
<g id="edge34_Node000016_Node000008" class="edge">
<title>Node16&#45;&gt;Node8</title>
<g id="a_edge34_Node000016_Node000008"><a xlink:title=" ">
<path fill="none" stroke="#63b8ff" d="M260.88,-219.09C271.97,-216.49 283.48,-213.35 294,-209.62 310.86,-203.64 313.25,-197.91 330,-191.62 335.42,-189.58 341.16,-187.69 346.93,-185.95"/>
<polygon fill="#63b8ff" stroke="#63b8ff" points="347.95,-189.3 356.6,-183.19 346.02,-182.57 347.95,-189.3"/>
</a>
</g>
</g>
<!-- Node16&#45;&gt;Node11 -->
<g id="edge35_Node000016_Node000011" class="edge">
<title>Node16&#45;&gt;Node11</title>
<g id="a_edge35_Node000016_Node000011"><a xlink:title=" ">
<path fill="none" stroke="#63b8ff" d="M280.95,-238.16C285.64,-240.47 290.05,-243.25 294,-246.62 328.05,-275.63 296.67,-310.78 330,-340.62 331.3,-341.78 332.67,-342.87 334.09,-343.89"/>
<polygon fill="#63b8ff" stroke="#63b8ff" points="332.36,-346.94 342.75,-349.02 335.92,-340.91 332.36,-346.94"/>
</a>
</g>
</g>
<!-- Node17&#45;&gt;Node11 -->
<g id="edge37_Node000017_Node000011" class="edge">
<title>Node17&#45;&gt;Node11</title>
<g id="a_edge37_Node000017_Node000011"><a xlink:title=" ">
<path fill="none" stroke="#63b8ff" d="M281.03,-369.74C296.09,-368.32 311.94,-366.82 326.96,-365.41"/>
<polygon fill="#63b8ff" stroke="#63b8ff" points="327.58,-368.86 337.21,-364.44 326.93,-361.89 327.58,-368.86"/>
</a>
</g>
</g>
<!-- Node18&#45;&gt;Node3 -->
<g id="edge39_Node000018_Node000003" class="edge">
<title>Node18&#45;&gt;Node3</title>
<g id="a_edge39_Node000018_Node000003"><a xlink:title=" ">
<path fill="none" stroke="#63b8ff" d="M260.88,-182.09C271.97,-179.49 283.48,-176.35 294,-172.62 310.86,-166.64 313.25,-160.91 330,-154.62 335.42,-152.58 341.16,-150.69 346.93,-148.95"/>
<polygon fill="#63b8ff" stroke="#63b8ff" points="347.95,-152.3 356.6,-146.19 346.02,-145.57 347.95,-152.3"/>
</a>
</g>
</g>
<!-- Node18&#45;&gt;Node5 -->
<g id="edge40_Node000018_Node000005" class="edge">
<title>Node18&#45;&gt;Node5</title>
<g id="a_edge40_Node000018_Node000005"><a xlink:title=" ">
<path fill="none" stroke="#63b8ff" d="M265.06,-201.22C274.85,-203.53 284.82,-206.31 294,-209.62 311.02,-215.75 313.18,-221.95 330,-228.62 335.99,-230.99 342.38,-233.18 348.77,-235.17"/>
<polygon fill="#63b8ff" stroke="#63b8ff" points="348.16,-238.64 358.74,-238.11 350.15,-231.92 348.16,-238.64"/>
</a>
</g>
</g>
<!-- Node18&#45;&gt;Node6 -->
<g id="edge41_Node000018_Node000006" class="edge">
<title>Node18&#45;&gt;Node6</title>
<g id="a_edge41_Node000018_Node000006"><a xlink:title=" ">
<path fill="none" stroke="#63b8ff" d="M291.22,-199.9C307.15,-201.48 323.54,-203.11 338.58,-204.61"/>
<polygon fill="#63b8ff" stroke="#63b8ff" points="338.46,-208.11 348.76,-205.62 339.15,-201.15 338.46,-208.11"/>
</a>
</g>
</g>
<!-- Node18&#45;&gt;Node7 -->
<g id="edge42_Node000018_Node000007" class="edge">
<title>Node18&#45;&gt;Node7</title>
<g id="a_edge42_Node000018_Node000007"><a xlink:title=" ">
<path fill="none" stroke="#63b8ff" d="M275.86,-181.97C282.29,-179.51 288.46,-176.44 294,-172.62 318.04,-156.02 306.28,-134.67 330,-117.62 332.07,-116.13 334.25,-114.77 336.51,-113.52"/>
<polygon fill="#63b8ff" stroke="#63b8ff" points="338.03,-116.67 345.57,-109.23 335.03,-110.34 338.03,-116.67"/>
</a>
</g>
</g>
<!-- Node18&#45;&gt;Node8 -->
<g id="edge43_Node000018_Node000008" class="edge">
<title>Node18&#45;&gt;Node8</title>
<g id="a_edge43_Node000018_Node000008"><a xlink:title=" ">
<path fill="none" stroke="#63b8ff" d="M291.22,-183.77C305.56,-182.42 320.27,-181.04 334.04,-179.74"/>
<polygon fill="#63b8ff" stroke="#63b8ff" points="334.74,-183.19 344.36,-178.77 334.08,-176.22 334.74,-183.19"/>
</a>
</g>
</g>
<!-- Node18&#45;&gt;Node9 -->
<g id="edge44_Node000018_Node000009" class="edge">
<title>Node18&#45;&gt;Node9</title>
<g id="a_edge44_Node000018_Node000009"><a xlink:title=" ">
<path fill="none" stroke="#63b8ff" d="M279.27,-181.97C284.59,-179.47 289.58,-176.39 294,-172.62 327.37,-144.08 297.18,-109.78 330,-80.62 331.3,-79.46 332.67,-78.37 334.1,-77.36"/>
<polygon fill="#63b8ff" stroke="#63b8ff" points="335.93,-80.34 342.77,-72.25 332.38,-74.31 335.93,-80.34"/>
</a>
</g>
</g>
<!-- Node18&#45;&gt;Node11 -->
<g id="edge45_Node000018_Node000011" class="edge">
<title>Node18&#45;&gt;Node11</title>
<g id="a_edge45_Node000018_Node000011"><a xlink:title=" ">
<path fill="none" stroke="#63b8ff" d="M282.14,-201.17C286.43,-203.49 290.44,-206.27 294,-209.62 338,-250.97 287.03,-298.2 330,-340.62 330.97,-341.57 331.98,-342.48 333.03,-343.34"/>
<polygon fill="#63b8ff" stroke="#63b8ff" points="331.44,-346.49 341.72,-349.05 335.29,-340.64 331.44,-346.49"/>
</a>
</g>
</g>
<!-- Node19&#45;&gt;Node3 -->
<g id="edge47_Node000019_Node000003" class="edge">
<title>Node19&#45;&gt;Node3</title>
<g id="a_edge47_Node000019_Node000003"><a xlink:title=" ">
<path fill="none" stroke="#63b8ff" d="M280.52,-293.02C285.43,-290.5 290,-287.4 294,-283.62 337.23,-242.69 287.55,-196.35 330,-154.62 330.97,-153.67 331.98,-152.76 333.03,-151.9"/>
<polygon fill="#63b8ff" stroke="#63b8ff" points="335.29,-154.61 341.74,-146.19 331.46,-148.75 335.29,-154.61"/>
</a>
</g>
</g>
<!-- Node19&#45;&gt;Node4 -->
<g id="edge48_Node000019_Node000004" class="edge">
<title>Node19&#45;&gt;Node4</title>
<g id="a_edge48_Node000019_Node000004"><a xlink:title=" ">
<path fill="none" stroke="#63b8ff" d="M284.59,-295.4C296.39,-294.29 308.59,-293.14 320.43,-292.02"/>
<polygon fill="#63b8ff" stroke="#63b8ff" points="321.1,-295.47 330.73,-291.05 320.44,-288.51 321.1,-295.47"/>
</a>
</g>
</g>
<!-- Node19&#45;&gt;Node5 -->
<g id="edge49_Node000019_Node000005" class="edge">
<title>Node19&#45;&gt;Node5</title>
<g id="a_edge49_Node000019_Node000005"><a xlink:title=" ">
<path fill="none" stroke="#63b8ff" d="M260.88,-293.09C271.97,-290.49 283.48,-287.35 294,-283.62 310.86,-277.64 313.25,-271.91 330,-265.62 335.42,-263.58 341.16,-261.69 346.93,-259.95"/>
<polygon fill="#63b8ff" stroke="#63b8ff" points="347.95,-263.3 356.6,-257.19 346.02,-256.57 347.95,-263.3"/>
</a>
</g>
</g>
<!-- Node19&#45;&gt;Node6 -->
<g id="edge50_Node000019_Node000006" class="edge">
<title>Node19&#45;&gt;Node6</title>
<g id="a_edge50_Node000019_Node000006"><a xlink:title=" ">
<path fill="none" stroke="#63b8ff" d="M275.86,-292.97C282.29,-290.51 288.46,-287.44 294,-283.62 318.04,-267.02 306.28,-245.67 330,-228.62 332.9,-226.53 336.03,-224.69 339.29,-223.06"/>
<polygon fill="#63b8ff" stroke="#63b8ff" points="340.95,-226.15 348.77,-219 338.2,-219.72 340.95,-226.15"/>
</a>
</g>
</g>
<!-- Node19&#45;&gt;Node8 -->
<g id="edge51_Node000019_Node000008" class="edge">
<title>Node19&#45;&gt;Node8</title>
<g id="a_edge51_Node000019_Node000008"><a xlink:title=" ">
<path fill="none" stroke="#63b8ff" d="M279.27,-292.97C284.59,-290.47 289.58,-287.39 294,-283.62 327.37,-255.08 297.18,-220.78 330,-191.62 331.73,-190.08 333.57,-188.67 335.51,-187.38"/>
<polygon fill="#63b8ff" stroke="#63b8ff" points="337.4,-190.33 344.48,-182.45 334.03,-184.2 337.4,-190.33"/>
</a>
</g>
</g>
<!-- Node19&#45;&gt;Node11 -->
<g id="edge52_Node000019_Node000011" class="edge">
<title>Node19&#45;&gt;Node11</title>
<g id="a_edge52_Node000019_Node000011"><a xlink:title=" ">
<path fill="none" stroke="#63b8ff" d="M261.86,-312.19C272.65,-314.75 283.81,-317.88 294,-321.62 310.99,-327.85 313.14,-334.07 330,-340.62 335.19,-342.63 340.69,-344.5 346.23,-346.2"/>
<polygon fill="#63b8ff" stroke="#63b8ff" points="345.6,-349.66 356.18,-349.09 347.55,-342.94 345.6,-349.66"/>
</a>
</g>
</g>
<!-- Node20&#45;&gt;Node3 -->
<g id="edge54_Node000020_Node000003" class="edge">
<title>Node20&#45;&gt;Node3</title>
<g id="a_edge54_Node000020_Node000003"><a xlink:title=" ">
<path fill="none" stroke="#63b8ff" d="M285.69,-125.35C296.92,-126.46 308.48,-127.61 319.74,-128.73"/>
<polygon fill="#63b8ff" stroke="#63b8ff" points="319.68,-132.24 329.98,-129.75 320.37,-125.28 319.68,-132.24"/>
</a>
</g>
</g>
<!-- Node20&#45;&gt;Node4 -->
<g id="edge55_Node000020_Node000004" class="edge">
<title>Node20&#45;&gt;Node4</title>
<g id="a_edge55_Node000020_Node000004"><a xlink:title=" ">
<path fill="none" stroke="#63b8ff" d="M282.13,-127.17C286.43,-129.49 290.44,-132.28 294,-135.62 337.72,-176.64 287.58,-223.26 330,-265.62 331.45,-267.07 333,-268.41 334.63,-269.65"/>
<polygon fill="#63b8ff" stroke="#63b8ff" points="333.03,-272.77 343.37,-275.06 336.71,-266.82 333.03,-272.77"/>
</a>
</g>
</g>
<!-- Node20&#45;&gt;Node5 -->
<g id="edge56_Node000020_Node000005" class="edge">
<title>Node20&#45;&gt;Node5</title>
<g id="a_edge56_Node000020_Node000005"><a xlink:title=" ">
<path fill="none" stroke="#63b8ff" d="M280.93,-127.18C285.63,-129.48 290.05,-132.26 294,-135.62 327.79,-164.3 297.12,-198.89 330,-228.62 331.72,-230.17 333.56,-231.61 335.49,-232.92"/>
<polygon fill="#63b8ff" stroke="#63b8ff" points="334.01,-236.11 344.44,-237.98 337.45,-230.01 334.01,-236.11"/>
</a>
</g>
</g>
<!-- Node20&#45;&gt;Node6 -->
<g id="edge57_Node000020_Node000006" class="edge">
<title>Node20&#45;&gt;Node6</title>
<g id="a_edge57_Node000020_Node000006"><a xlink:title=" ">
<path fill="none" stroke="#63b8ff" d="M278.06,-127.22C283.7,-129.48 289.1,-132.24 294,-135.62 318.37,-152.39 306.16,-174.09 330,-191.62 332.98,-193.81 336.2,-195.74 339.56,-197.46"/>
<polygon fill="#63b8ff" stroke="#63b8ff" points="338.16,-200.67 348.72,-201.5 340.98,-194.26 338.16,-200.67"/>
</a>
</g>
</g>
<!-- Node20&#45;&gt;Node7 -->
<g id="edge58_Node000020_Node000007" class="edge">
<title>Node20&#45;&gt;Node7</title>
<g id="a_edge58_Node000020_Node000007"><a xlink:title=" ">
<path fill="none" stroke="#63b8ff" d="M285.69,-110.3C300.79,-108.87 316.51,-107.39 331.27,-106"/>
<polygon fill="#63b8ff" stroke="#63b8ff" points="331.68,-109.48 341.31,-105.05 331.02,-102.51 331.68,-109.48"/>
</a>
</g>
</g>
<!-- Node20&#45;&gt;Node8 -->
<g id="edge59_Node000020_Node000008" class="edge">
<title>Node20&#45;&gt;Node8</title>
<g id="a_edge59_Node000020_Node000008"><a xlink:title=" ">
<path fill="none" stroke="#63b8ff" d="M265.06,-127.22C274.85,-129.53 284.82,-132.31 294,-135.62 311.02,-141.75 313.18,-147.95 330,-154.62 335.99,-156.99 342.38,-159.18 348.77,-161.17"/>
<polygon fill="#63b8ff" stroke="#63b8ff" points="348.16,-164.64 358.74,-164.11 350.15,-157.92 348.16,-164.64"/>
</a>
</g>
</g>
<!-- Node20&#45;&gt;Node12 -->
<g id="edge60_Node000020_Node000012" class="edge">
<title>Node20&#45;&gt;Node12</title>
<g id="a_edge60_Node000020_Node000012"><a xlink:title=" ">
<path fill="none" stroke="#63b8ff" d="M275.86,-107.97C282.29,-105.51 288.46,-102.44 294,-98.62 318.04,-82.02 304.83,-58.44 330,-43.62 388.04,-9.43 466.58,-8.73 521.81,-14.04"/>
<polygon fill="#63b8ff" stroke="#63b8ff" points="521.53,-17.53 531.84,-15.09 522.26,-10.57 521.53,-17.53"/>
</a>
</g>
</g>
</g>
</svg>

<g id="navigator" transform="translate(0 0)" fill="#404254">
  <rect fill="#f2f5e9" fill-opacity="0.5" stroke="#606060" stroke-width=".5" x="0" y="0" width="60" height="60"/>
  <use id="zoomplus" xlink:href="#zoomPlus" x="17" y="9" onmousedown="handleZoom(evt,'in')"/>
  <use id="zoomminus" xlink:href="#zoomMin" x="42" y="9" onmousedown="handleZoom(evt,'out')"/>
  <use id="reset" xlink:href="#resetDef" x="30" y="36" onmousedown="handleReset()"/>
   <use id="arrowup" xlink:href="#arrowUp" x="0" y="0" onmousedown="handlePan(0,-1)"/>
  <use id="arrowright" xlink:href="#arrowRight" x="0" y="0" onmousedown="handlePan(1,0)"/>
  <use id="arrowdown" xlink:href="#arrowDown" x="0" y="0" onmousedown="handlePan(0,1)"/>
  <use id="arrowleft" xlink:href="#arrowLeft" x="0" y="0" onmousedown="handlePan(-1,0)"/>
</g>
<svg viewBox="0 0 15 15" width="100%" height="30px" preserveAspectRatio="xMaxYMin meet">
 <g id="arrow_out" transform="scale(0.3 0.3)">
  <a xlink:href="testas_8h_a5b0bc173f8bb450eee52bf4e5812ea09_cgraph_org.svg" target="_base">
   <rect id="button" ry="5" rx="5" y="6" x="6" height="38" width="38"
        fill="#f2f5e9" fill-opacity="0.5" stroke="#606060" stroke-width="1.0"/>
   <path id="arrow"
     d="M 11.500037,31.436501 C 11.940474,20.09759 22.043105,11.32322 32.158766,21.979434 L 37.068811,17.246167 C 37.068811,17.246167 37.088388,32 37.088388,32 L 22.160133,31.978069 C 22.160133,31.978069 26.997745,27.140456 26.997745,27.140456 C 18.528582,18.264221 13.291696,25.230495 11.500037,31.436501 z"
     style="fill:#404040;"/>
  </a>
 </g>
</svg>

<style type='text/css'>
<![CDATA[
[data-mouse-over-selected='false'] { opacity: 0.7; }
[data-mouse-over-selected='true']  { opacity: 1.0; }
]]>
</style>
<script type="application/ecmascript"><![CDATA[
document.addEventListener('DOMContentLoaded', (event) => {
  highlightEdges();
  highlightAdjacentNodes();
});
]]></script>
</svg>
