<?xml version="1.0" encoding="UTF-8" standalone="no"?>
<!DOCTYPE svg PUBLIC "-//W3C//DTD SVG 1.1//EN"
 "http://www.w3.org/Graphics/SVG/1.1/DTD/svg11.dtd">
<!-- Generated by graphviz version 2.42.4 (0)
 -->
<!-- Title: tyrimas.cpp Pages: 1 -->
<svg width="884pt" height="302pt"
 viewBox="0.00 0.00 883.50 302.00" xmlns="http://www.w3.org/2000/svg" xmlns:xlink="http://www.w3.org/1999/xlink">
<g id="graph0" class="graph" transform="scale(1 1) rotate(0) translate(4 298)">
<title>tyrimas.cpp</title>
<!-- Node1 -->
<g id="Node000001" class="node">
<title>Node1</title>
<g id="a_Node000001"><a xlink:title=" ">
<polygon fill="#999999" stroke="#666666" points="516.5,-294 442.5,-294 442.5,-275 516.5,-275 516.5,-294"/>
<text text-anchor="middle" x="479.5" y="-282" font-family="Helvetica,sans-Serif" font-size="10.00">tyrimas.cpp</text>
</a>
</g>
</g>
<!-- Node2 -->
<g id="Node000002" class="node">
<title>Node2</title>
<g id="a_Node000002"><a xlink:href="tyrimas_8h.html" target="_top" xlink:title="Konteinerių ir skirstymo strategijų greitaveikos tyrimo funkcijos.">
<polygon fill="white" stroke="#666666" points="63,-239 0,-239 0,-220 63,-220 63,-239"/>
<text text-anchor="middle" x="31.5" y="-227" font-family="Helvetica,sans-Serif" font-size="10.00">tyrimas.h</text>
</a>
</g>
</g>
<!-- Node1&#45;&gt;Node2 -->
<g id="edge1_Node000001_Node000002" class="edge">
<title>Node1&#45;&gt;Node2</title>
<g id="a_edge1_Node000001_Node000002"><a xlink:title=" ">
<path fill="none" stroke="#63b8ff" d="M442.25,-280.29C371.14,-273.95 211.22,-258.73 77.5,-239 76.04,-238.79 74.56,-238.56 73.07,-238.32"/>
<polygon fill="#63b8ff" stroke="#63b8ff" points="73.56,-234.86 63.12,-236.65 72.41,-241.76 73.56,-234.86"/>
</a>
</g>
</g>
<!-- Node3 -->
<g id="Node000003" class="node">
<title>Node3</title>
<g id="a_Node000003"><a xlink:href="Generavimas_8h.html" target="_top" xlink:title="Studentų failų generavimo ir skirstymo į grupes funkcijų deklaracijos.">
<polygon fill="white" stroke="#666666" points="525,-239 434,-239 434,-220 525,-220 525,-239"/>
<text text-anchor="middle" x="479.5" y="-227" font-family="Helvetica,sans-Serif" font-size="10.00">Generavimas.h</text>
</a>
</g>
</g>
<!-- Node1&#45;&gt;Node3 -->
<g id="edge2_Node000001_Node000003" class="edge">
<title>Node1&#45;&gt;Node3</title>
<g id="a_edge2_Node000001_Node000003"><a xlink:title=" ">
<path fill="none" stroke="#63b8ff" d="M479.5,-274.75C479.5,-267.8 479.5,-257.85 479.5,-249.13"/>
<polygon fill="#63b8ff" stroke="#63b8ff" points="483,-249.09 479.5,-239.09 476,-249.09 483,-249.09"/>
</a>
</g>
</g>
<!-- Node4 -->
<g id="Node000004" class="node">
<title>Node4</title>
<g id="a_Node000004"><a xlink:href="konteineris_8h.html" target="_top" xlink:title="Kompiliavimo laiku pasirenkamas studentų konteineris.">
<polygon fill="white" stroke="#666666" points="458.5,-184 378.5,-184 378.5,-165 458.5,-165 458.5,-184"/>
<text text-anchor="middle" x="418.5" y="-172" font-family="Helvetica,sans-Serif" font-size="10.00">konteineris.h</text>
</a>
</g>
</g>
<!-- Node1&#45;&gt;Node4 -->
<g id="edge17_Node000001_Node000004" class="edge">
<title>Node1&#45;&gt;Node4</title>
<g id="a_edge17_Node000001_Node000004"><a xlink:title=" ">
<path fill="none" stroke="#63b8ff" d="M463.34,-274.87C450.76,-267.22 434.05,-254.82 425.5,-239 418.16,-225.42 416.73,-207.83 416.96,-194.61"/>
<polygon fill="#63b8ff" stroke="#63b8ff" points="420.47,-194.49 417.47,-184.32 413.48,-194.13 420.47,-194.49"/>
</a>
</g>
</g>
<!-- Node7 -->
<g id="Node000007" class="node">
<title>Node7</title>
<g id="a_Node000007"><a xlink:title=" ">
<polygon fill="#e0e0e0" stroke="#999999" points="225.5,-19 165.5,-19 165.5,0 225.5,0 225.5,-19"/>
<text text-anchor="middle" x="195.5" y="-7" font-family="Helvetica,sans-Serif" font-size="10.00">iostream</text>
</a>
</g>
</g>
<!-- Node1&#45;&gt;Node7 -->
<g id="edge27_Node000001_Node000007" class="edge">
<title>Node1&#45;&gt;Node7</title>
<g id="a_edge27_Node000001_Node000007"><a xlink:title=" ">
<path fill="none" stroke="#63b8ff" d="M442.3,-281.1C345.18,-273.82 91.5,-247.87 91.5,-175.5 91.5,-175.5 91.5,-175.5 91.5,-118.5 91.5,-89.04 91.76,-77.73 110.5,-55 122.55,-40.39 140.66,-29.98 157.07,-22.92"/>
<polygon fill="#63b8ff" stroke="#63b8ff" points="158.5,-26.12 166.48,-19.15 155.9,-19.62 158.5,-26.12"/>
</a>
</g>
</g>
<!-- Node8 -->
<g id="Node000008" class="node">
<title>Node8</title>
<g id="a_Node000008"><a xlink:title=" ">
<polygon fill="#e0e0e0" stroke="#999999" points="555.5,-19 511.5,-19 511.5,0 555.5,0 555.5,-19"/>
<text text-anchor="middle" x="533.5" y="-7" font-family="Helvetica,sans-Serif" font-size="10.00">string</text>
</a>
</g>
</g>
<!-- Node1&#45;&gt;Node8 -->
<g id="edge28_Node000001_Node000008" class="edge">
<title>Node1&#45;&gt;Node8</title>
<g id="a_edge28_Node000001_Node000008"><a xlink:title=" ">
<path fill="none" stroke="#63b8ff" d="M516.63,-282.03C550.21,-278.72 598.81,-268.68 628.5,-239 649.34,-218.18 647.5,-204.96 647.5,-175.5 647.5,-175.5 647.5,-175.5 647.5,-118.5 647.5,-72.47 597.92,-40.18 564.15,-23.53"/>
<polygon fill="#63b8ff" stroke="#63b8ff" points="565.21,-20.16 554.68,-19.05 562.22,-26.49 565.21,-20.16"/>
</a>
</g>
</g>
<!-- Node9 -->
<g id="Node000009" class="node">
<title>Node9</title>
<g id="a_Node000009"><a xlink:title=" ">
<polygon fill="#e0e0e0" stroke="#999999" points="167,-74 120,-74 120,-55 167,-55 167,-74"/>
<text text-anchor="middle" x="143.5" y="-62" font-family="Helvetica,sans-Serif" font-size="10.00">vector</text>
</a>
</g>
</g>
<!-- Node1&#45;&gt;Node9 -->
<g id="edge29_Node000001_Node000009" class="edge">
<title>Node1&#45;&gt;Node9</title>
<g id="a_edge29_Node000001_Node000009"><a xlink:title=" ">
<path fill="none" stroke="#63b8ff" d="M442.3,-280.87C401.15,-276.7 333.86,-266.01 282.5,-239 218.75,-205.48 202.06,-189.83 163.5,-129 154.8,-115.27 149.62,-97.46 146.72,-84.2"/>
<polygon fill="#63b8ff" stroke="#63b8ff" points="150.15,-83.47 144.8,-74.32 143.28,-84.81 150.15,-83.47"/>
</a>
</g>
</g>
<!-- Node13 -->
<g id="Node000013" class="node">
<title>Node13</title>
<g id="a_Node000013"><a xlink:href="laikai_8h.html" target="_top" xlink:title="Laiko matavimų struktūra ir pagalbinės funkcijos.">
<polygon fill="white" stroke="#666666" points="727.5,-239 675.5,-239 675.5,-220 727.5,-220 727.5,-239"/>
<text text-anchor="middle" x="701.5" y="-227" font-family="Helvetica,sans-Serif" font-size="10.00">laikai.h</text>
</a>
</g>
</g>
<!-- Node1&#45;&gt;Node13 -->
<g id="edge18_Node000001_Node000013" class="edge">
<title>Node1&#45;&gt;Node13</title>
<g id="a_edge18_Node000001_Node000013"><a xlink:title=" ">
<path fill="none" stroke="#63b8ff" d="M515.17,-274.98C556.41,-265.14 623.92,-249.02 665.36,-239.13"/>
<polygon fill="#63b8ff" stroke="#63b8ff" points="666.39,-242.48 675.3,-236.75 664.76,-235.67 666.39,-242.48"/>
</a>
</g>
</g>
<!-- Node14 -->
<g id="Node000014" class="node">
<title>Node14</title>
<g id="a_Node000014"><a xlink:href="skaitymas_8h.html" target="_top" xlink:title="Studentų duomenų skaitymo funkcijų deklaracijos.">
<polygon fill="white" stroke="#666666" points="619.5,-239 543.5,-239 543.5,-220 619.5,-220 619.5,-239"/>
<text text-anchor="middle" x="581.5" y="-227" font-family="Helvetica,sans-Serif" font-size="10.00">skaitymas.h</text>
</a>
</g>
</g>
<!-- Node1&#45;&gt;Node14 -->
<g id="edge19_Node000001_Node000014" class="edge">
<title>Node1&#45;&gt;Node14</title>
<g id="a_edge19_Node000001_Node000014"><a xlink:title=" ">
<path fill="none" stroke="#63b8ff" d="M495.89,-274.98C512.07,-266.57 537.07,-253.59 555.88,-243.81"/>
<polygon fill="#63b8ff" stroke="#63b8ff" points="557.55,-246.89 564.81,-239.17 554.33,-240.68 557.55,-246.89"/>
</a>
</g>
</g>
<!-- Node15 -->
<g id="Node000015" class="node">
<title>Node15</title>
<g id="a_Node000015"><a xlink:href="spausdinam_8h.html" target="_top" xlink:title="Studentų duomenų rikiavimo ir išvedimo funkcijų deklaracijos.">
<polygon fill="white" stroke="#666666" points="377,-239 292,-239 292,-220 377,-220 377,-239"/>
<text text-anchor="middle" x="334.5" y="-227" font-family="Helvetica,sans-Serif" font-size="10.00">spausdinam.h</text>
</a>
</g>
</g>
<!-- Node1&#45;&gt;Node15 -->
<g id="edge22_Node000001_Node000015" class="edge">
<title>Node1&#45;&gt;Node15</title>
<g id="a_edge22_Node000001_Node000015"><a xlink:title=" ">
<path fill="none" stroke="#63b8ff" d="M456.2,-274.98C432.25,-266.23 394.72,-252.51 367.67,-242.62"/>
<polygon fill="#63b8ff" stroke="#63b8ff" points="368.81,-239.32 358.22,-239.17 366.41,-245.89 368.81,-239.32"/>
</a>
</g>
</g>
<!-- Node16 -->
<g id="Node000016" class="node">
<title>Node16</title>
<g id="a_Node000016"><a xlink:title=" ">
<polygon fill="#e0e0e0" stroke="#999999" points="801,-239 746,-239 746,-220 801,-220 801,-239"/>
<text text-anchor="middle" x="773.5" y="-227" font-family="Helvetica,sans-Serif" font-size="10.00">fstream</text>
</a>
</g>
</g>
<!-- Node1&#45;&gt;Node16 -->
<g id="edge25_Node000001_Node000016" class="edge">
<title>Node1&#45;&gt;Node16</title>
<g id="a_edge25_Node000001_Node000016"><a xlink:title=" ">
<path fill="none" stroke="#63b8ff" d="M516.64,-277.72C564.81,-270.08 651.66,-255.82 735.69,-239.07"/>
<polygon fill="#63b8ff" stroke="#63b8ff" points="736.54,-242.47 745.65,-237.07 735.16,-235.61 736.54,-242.47"/>
</a>
</g>
</g>
<!-- Node17 -->
<g id="Node000017" class="node">
<title>Node17</title>
<g id="a_Node000017"><a xlink:title=" ">
<polygon fill="#e0e0e0" stroke="#999999" points="875.5,-239 819.5,-239 819.5,-220 875.5,-220 875.5,-239"/>
<text text-anchor="middle" x="847.5" y="-227" font-family="Helvetica,sans-Serif" font-size="10.00">iomanip</text>
</a>
</g>
</g>
<!-- Node1&#45;&gt;Node17 -->
<g id="edge26_Node000001_Node000017" class="edge">
<title>Node1&#45;&gt;Node17</title>
<g id="a_edge26_Node000001_Node000017"><a xlink:title=" ">
<path fill="none" stroke="#63b8ff" d="M516.91,-279.61C576.62,-273.15 697.33,-259.08 809.17,-239.09"/>
<polygon fill="#63b8ff" stroke="#63b8ff" points="810.06,-242.49 819.27,-237.27 808.81,-235.6 810.06,-242.49"/>
</a>
</g>
</g>
<!-- Node3&#45;&gt;Node4 -->
<g id="edge3_Node000003_Node000004" class="edge">
<title>Node3&#45;&gt;Node4</title>
<g id="a_edge3_Node000003_Node000004"><a xlink:title=" ">
<path fill="none" stroke="#63b8ff" d="M469.7,-219.98C460.68,-212.15 447.09,-200.34 436.18,-190.86"/>
<polygon fill="#63b8ff" stroke="#63b8ff" points="438.32,-188.09 428.48,-184.17 433.73,-193.37 438.32,-188.09"/>
</a>
</g>
</g>
<!-- Node3&#45;&gt;Node8 -->
<g id="edge16_Node000003_Node000008" class="edge">
<title>Node3&#45;&gt;Node8</title>
<g id="a_edge16_Node000003_Node000008"><a xlink:title=" ">
<path fill="none" stroke="#63b8ff" d="M485.45,-219.99C500.68,-197.47 540.47,-133.98 548.5,-74 549.62,-65.63 549.87,-63.33 548.5,-55 547.03,-46.05 544.01,-36.47 541.06,-28.51"/>
<polygon fill="#63b8ff" stroke="#63b8ff" points="544.29,-27.16 537.36,-19.15 537.78,-29.74 544.29,-27.16"/>
</a>
</g>
</g>
<!-- Node5 -->
<g id="Node000005" class="node">
<title>Node5</title>
<g id="a_Node000005"><a xlink:href="Studentas_8h.html" target="_top" xlink:title="Studento klasės apibrėžimas.">
<polygon fill="white" stroke="#666666" points="269.5,-129 195.5,-129 195.5,-110 269.5,-110 269.5,-129"/>
<text text-anchor="middle" x="232.5" y="-117" font-family="Helvetica,sans-Serif" font-size="10.00">Studentas.h</text>
</a>
</g>
</g>
<!-- Node4&#45;&gt;Node5 -->
<g id="edge4_Node000004_Node000005" class="edge">
<title>Node4&#45;&gt;Node5</title>
<g id="a_edge4_Node000004_Node000005"><a xlink:title=" ">
<path fill="none" stroke="#63b8ff" d="M388.62,-164.98C357.12,-156.01 307.33,-141.82 272.47,-131.89"/>
<polygon fill="#63b8ff" stroke="#63b8ff" points="273.19,-128.46 262.62,-129.08 271.28,-135.19 273.19,-128.46"/>
</a>
</g>
</g>
<!-- Node4&#45;&gt;Node8 -->
<g id="edge14_Node000004_Node000008" class="edge">
<title>Node4&#45;&gt;Node8</title>
<g id="a_edge14_Node000004_Node000008"><a xlink:title=" ">
<path fill="none" stroke="#63b8ff" d="M457.3,-164.85C477.43,-158.35 500.64,-147.31 514.5,-129 536.64,-99.75 537.31,-54.69 535.58,-29.4"/>
<polygon fill="#63b8ff" stroke="#63b8ff" points="539.05,-28.95 534.68,-19.3 532.08,-29.57 539.05,-28.95"/>
</a>
</g>
</g>
<!-- Node4&#45;&gt;Node9 -->
<g id="edge15_Node000004_Node000009" class="edge">
<title>Node4&#45;&gt;Node9</title>
<g id="a_edge15_Node000004_Node000009"><a xlink:title=" ">
<path fill="none" stroke="#63b8ff" d="M378.41,-169.54C320.64,-163.21 217.49,-149.42 186.5,-129 169.86,-118.04 157.98,-98.19 150.98,-83.59"/>
<polygon fill="#63b8ff" stroke="#63b8ff" points="154.01,-81.8 146.75,-74.09 147.62,-84.65 154.01,-81.8"/>
</a>
</g>
</g>
<!-- Node10 -->
<g id="Node000010" class="node">
<title>Node10</title>
<g id="a_Node000010"><a xlink:title=" ">
<polygon fill="#e0e0e0" stroke="#999999" points="389.5,-129 325.5,-129 325.5,-110 389.5,-110 389.5,-129"/>
<text text-anchor="middle" x="357.5" y="-117" font-family="Helvetica,sans-Serif" font-size="10.00">algorithm</text>
</a>
</g>
</g>
<!-- Node4&#45;&gt;Node10 -->
<g id="edge11_Node000004_Node000010" class="edge">
<title>Node4&#45;&gt;Node10</title>
<g id="a_edge11_Node000004_Node000010"><a xlink:title=" ">
<path fill="none" stroke="#63b8ff" d="M408.7,-164.98C399.68,-157.15 386.09,-145.34 375.18,-135.86"/>
<polygon fill="#63b8ff" stroke="#63b8ff" points="377.32,-133.09 367.48,-129.17 372.73,-138.37 377.32,-133.09"/>
</a>
</g>
</g>
<!-- Node11 -->
<g id="Node000011" class="node">
<title>Node11</title>
<g id="a_Node000011"><a xlink:title=" ">
<polygon fill="#e0e0e0" stroke="#999999" points="455,-129 408,-129 408,-110 455,-110 455,-129"/>
<text text-anchor="middle" x="431.5" y="-117" font-family="Helvetica,sans-Serif" font-size="10.00">deque</text>
</a>
</g>
</g>
<!-- Node4&#45;&gt;Node11 -->
<g id="edge12_Node000004_Node000011" class="edge">
<title>Node4&#45;&gt;Node11</title>
<g id="a_edge12_Node000004_Node000011"><a xlink:title=" ">
<path fill="none" stroke="#63b8ff" d="M420.65,-164.75C422.37,-157.72 424.85,-147.62 427,-138.84"/>
<polygon fill="#63b8ff" stroke="#63b8ff" points="430.41,-139.63 429.39,-129.09 423.61,-137.97 430.41,-139.63"/>
</a>
</g>
</g>
<!-- Node12 -->
<g id="Node000012" class="node">
<title>Node12</title>
<g id="a_Node000012"><a xlink:title=" ">
<polygon fill="#e0e0e0" stroke="#999999" points="505.5,-129 473.5,-129 473.5,-110 505.5,-110 505.5,-129"/>
<text text-anchor="middle" x="489.5" y="-117" font-family="Helvetica,sans-Serif" font-size="10.00">list</text>
</a>
</g>
</g>
<!-- Node4&#45;&gt;Node12 -->
<g id="edge13_Node000004_Node000012" class="edge">
<title>Node4&#45;&gt;Node12</title>
<g id="a_edge13_Node000004_Node000012"><a xlink:title=" ">
<path fill="none" stroke="#63b8ff" d="M429.91,-164.98C440.61,-157 456.84,-144.88 469.66,-135.31"/>
<polygon fill="#63b8ff" stroke="#63b8ff" points="471.97,-137.96 477.89,-129.17 467.78,-132.35 471.97,-137.96"/>
</a>
</g>
</g>
<!-- Node6 -->
<g id="Node000006" class="node">
<title>Node6</title>
<g id="a_Node000006"><a xlink:href="Zmogus_8h.html" target="_top" xlink:title="Abstrakti bazinė klasė žmogui.">
<polygon fill="white" stroke="#666666" points="289,-74 224,-74 224,-55 289,-55 289,-74"/>
<text text-anchor="middle" x="256.5" y="-62" font-family="Helvetica,sans-Serif" font-size="10.00">Zmogus.h</text>
</a>
</g>
</g>
<!-- Node5&#45;&gt;Node6 -->
<g id="edge5_Node000005_Node000006" class="edge">
<title>Node5&#45;&gt;Node6</title>
<g id="a_edge5_Node000005_Node000006"><a xlink:title=" ">
<path fill="none" stroke="#63b8ff" d="M236.46,-109.75C239.71,-102.57 244.42,-92.18 248.45,-83.27"/>
<polygon fill="#63b8ff" stroke="#63b8ff" points="251.67,-84.64 252.61,-74.09 245.3,-81.75 251.67,-84.64"/>
</a>
</g>
</g>
<!-- Node5&#45;&gt;Node7 -->
<g id="edge8_Node000005_Node000007" class="edge">
<title>Node5&#45;&gt;Node7</title>
<g id="a_edge8_Node000005_Node000007"><a xlink:title=" ">
<path fill="none" stroke="#63b8ff" d="M228.67,-109.73C224.84,-100.82 218.92,-86.58 214.5,-74 209.25,-59.05 204.15,-41.82 200.56,-29.08"/>
<polygon fill="#63b8ff" stroke="#63b8ff" points="203.87,-27.91 197.83,-19.21 197.13,-29.78 203.87,-27.91"/>
</a>
</g>
</g>
<!-- Node5&#45;&gt;Node8 -->
<g id="edge9_Node000005_Node000008" class="edge">
<title>Node5&#45;&gt;Node8</title>
<g id="a_edge9_Node000005_Node000008"><a xlink:title=" ">
<path fill="none" stroke="#63b8ff" d="M244.63,-109.78C264.12,-96.16 304.04,-69.86 341.5,-55 395.43,-33.61 462.15,-21.03 501.06,-14.98"/>
<polygon fill="#63b8ff" stroke="#63b8ff" points="501.89,-18.39 511.26,-13.44 500.85,-11.47 501.89,-18.39"/>
</a>
</g>
</g>
<!-- Node5&#45;&gt;Node9 -->
<g id="edge10_Node000005_Node000009" class="edge">
<title>Node5&#45;&gt;Node9</title>
<g id="a_edge10_Node000005_Node000009"><a xlink:title=" ">
<path fill="none" stroke="#63b8ff" d="M218.2,-109.98C204.4,-101.77 183.26,-89.18 166.99,-79.49"/>
<polygon fill="#63b8ff" stroke="#63b8ff" points="168.44,-76.28 158.06,-74.17 164.86,-82.29 168.44,-76.28"/>
</a>
</g>
</g>
<!-- Node6&#45;&gt;Node7 -->
<g id="edge6_Node000006_Node000007" class="edge">
<title>Node6&#45;&gt;Node7</title>
<g id="a_edge6_Node000006_Node000007"><a xlink:title=" ">
<path fill="none" stroke="#63b8ff" d="M246.7,-54.98C237.68,-47.15 224.09,-35.34 213.18,-25.86"/>
<polygon fill="#63b8ff" stroke="#63b8ff" points="215.32,-23.09 205.48,-19.17 210.73,-28.37 215.32,-23.09"/>
</a>
</g>
</g>
<!-- Node6&#45;&gt;Node8 -->
<g id="edge7_Node000006_Node000008" class="edge">
<title>Node6&#45;&gt;Node8</title>
<g id="a_edge7_Node000006_Node000008"><a xlink:title=" ">
<path fill="none" stroke="#63b8ff" d="M289.09,-57.26C342.59,-47.03 448.37,-26.79 501.49,-16.63"/>
<polygon fill="#63b8ff" stroke="#63b8ff" points="502.21,-20.05 511.38,-14.73 500.9,-13.17 502.21,-20.05"/>
</a>
</g>
</g>
<!-- Node14&#45;&gt;Node4 -->
<g id="edge20_Node000014_Node000004" class="edge">
<title>Node14&#45;&gt;Node4</title>
<g id="a_edge20_Node000014_Node000004"><a xlink:title=" ">
<path fill="none" stroke="#63b8ff" d="M555.31,-219.98C528.06,-211.13 485.2,-197.19 454.72,-187.28"/>
<polygon fill="#63b8ff" stroke="#63b8ff" points="455.49,-183.85 444.89,-184.08 453.32,-190.5 455.49,-183.85"/>
</a>
</g>
</g>
<!-- Node14&#45;&gt;Node8 -->
<g id="edge21_Node000014_Node000008" class="edge">
<title>Node14&#45;&gt;Node8</title>
<g id="a_edge21_Node000014_Node000008"><a xlink:title=" ">
<path fill="none" stroke="#63b8ff" d="M584.29,-219.65C592.13,-193.17 612.09,-112.75 585.5,-55 579.75,-42.52 568.59,-32.24 558.08,-24.71"/>
<polygon fill="#63b8ff" stroke="#63b8ff" points="559.8,-21.65 549.53,-19.05 555.93,-27.49 559.8,-21.65"/>
</a>
</g>
</g>
<!-- Node15&#45;&gt;Node4 -->
<g id="edge23_Node000015_Node000004" class="edge">
<title>Node15&#45;&gt;Node4</title>
<g id="a_edge23_Node000015_Node000004"><a xlink:title=" ">
<path fill="none" stroke="#63b8ff" d="M348,-219.98C360.9,-211.84 380.6,-199.41 395.9,-189.76"/>
<polygon fill="#63b8ff" stroke="#63b8ff" points="398.17,-192.47 404.76,-184.17 394.43,-186.55 398.17,-192.47"/>
</a>
</g>
</g>
<!-- Node15&#45;&gt;Node8 -->
<g id="edge24_Node000015_Node000008" class="edge">
<title>Node15&#45;&gt;Node8</title>
<g id="a_edge24_Node000015_Node000008"><a xlink:title=" ">
<path fill="none" stroke="#63b8ff" d="M329.57,-219.94C318.37,-199.23 293.69,-145.55 316.5,-110 357.66,-45.84 451.68,-22.52 501.37,-14.46"/>
<polygon fill="#63b8ff" stroke="#63b8ff" points="501.9,-17.92 511.26,-12.97 500.85,-11 501.9,-17.92"/>
</a>
</g>
</g>
</g>
</svg>
