<?xml version="1.0" encoding="UTF-8" standalone="no"?>
<!DOCTYPE svg PUBLIC "-//W3C//DTD SVG 1.1//EN"
 "http://www.w3.org/Graphics/SVG/1.1/DTD/svg11.dtd">
<!-- Generated by graphviz version 2.42.4 (0)
 -->
<!-- Title: TEST Pages: 1 -->
<svg width="252pt" height="212pt"
 viewBox="0.00 0.00 252.00 212.00" xmlns="http://www.w3.org/2000/svg" xmlns:xlink="http://www.w3.org/1999/xlink">

<svg id="main" version="1.1" xmlns="http://www.w3.org/2000/svg" xmlns:xlink="http://www.w3.org/1999/xlink" xml:space="preserve" onload="init(evt)">
<style type="text/css"><![CDATA[
.node, .edge {opacity: 0.7;}
.node.selected, .edge.selected {opacity: 1;}
.edge:hover path { stroke: red; }
.edge:hover polygon { stroke: red; fill: red; }
]]></style>
<script type="application/ecmascript" xlink:href="svg.min.js"/>
<svg id="graph" class="graph">
<g id="graph0" class="graph" transform="scale(1 1) rotate(0) translate(4 208)">
<title>TEST</title>
<!-- Node1 -->
<g id="Node000001" class="node">
<title>Node1</title>
<g id="a_Node000001"><a xlink:title="Tikrina srautinį konstruktorių su standartine eilute.">
<polygon fill="#999999" stroke="#666666" points="41,-111 0,-111 0,-92 41,-92 41,-111"/>
<text text-anchor="middle" x="20.5" y="-99" font-family="Helvetica,sans-Serif" font-size="10.00">TEST</text>
</a>
</g>
</g>
<!-- Node2 -->
<g id="Node000002" class="node">
<title>Node2</title>
<g id="a_Node000002"><a xlink:href="classStudentas.html#abe38c118e8e899b4de681f1d12adceab" target="_top" xlink:title="Grąžina egzamino pažymį.">
<polygon fill="white" stroke="#666666" points="230.5,-204 90.5,-204 90.5,-185 230.5,-185 230.5,-204"/>
<text text-anchor="middle" x="160.5" y="-192" font-family="Helvetica,sans-Serif" font-size="10.00">Studentas::getEgzaminas</text>
</a>
</g>
</g>
<!-- Node1&#45;&gt;Node2 -->
<g id="edge1_Node000001_Node000002" class="edge">
<title>Node1&#45;&gt;Node2</title>
<g id="a_edge1_Node000001_Node000002"><a xlink:title=" ">
<path fill="none" stroke="#63b8ff" d="M25.76,-111.06C33.49,-127.26 51.43,-159.96 77,-176.5 79.48,-178.11 82.08,-179.57 84.77,-180.9"/>
<polygon fill="#63b8ff" stroke="#63b8ff" points="83.62,-184.22 94.19,-184.96 86.39,-177.79 83.62,-184.22"/>
</a>
</g>
</g>
<!-- Node3 -->
<g id="Node000003" class="node">
<title>Node3</title>
<g id="a_Node000003"><a xlink:href="classStudentas.html#a1325b10f479819956015190c8ba49cf0" target="_top" xlink:title="Grąžina galutinį balą apskaičiuotą pagal vidurkį.">
<polygon fill="white" stroke="#666666" points="227,-167 94,-167 94,-148 227,-148 227,-167"/>
<text text-anchor="middle" x="160.5" y="-155" font-family="Helvetica,sans-Serif" font-size="10.00">Studentas::getgalrezVid</text>
</a>
</g>
</g>
<!-- Node1&#45;&gt;Node3 -->
<g id="edge2_Node000001_Node000003" class="edge">
<title>Node1&#45;&gt;Node3</title>
<g id="a_edge2_Node000001_Node000003"><a xlink:title=" ">
<path fill="none" stroke="#63b8ff" d="M32.63,-111.06C43.32,-119.75 60.28,-132.28 77,-139.5 81.76,-141.55 86.77,-143.38 91.89,-145.01"/>
<polygon fill="#63b8ff" stroke="#63b8ff" points="91.21,-148.46 101.79,-147.9 93.17,-141.74 91.21,-148.46"/>
</a>
</g>
</g>
<!-- Node4 -->
<g id="Node000004" class="node">
<title>Node4</title>
<g id="a_Node000004"><a xlink:href="classStudentas.html#a72ad9cbcac7d53cefe587120d379a78b" target="_top" xlink:title="Grąžina namų darbų pažymių vektorių (tik skaitymui).">
<polygon fill="white" stroke="#666666" points="211.5,-130 109.5,-130 109.5,-111 211.5,-111 211.5,-130"/>
<text text-anchor="middle" x="160.5" y="-118" font-family="Helvetica,sans-Serif" font-size="10.00">Studentas::getND</text>
</a>
</g>
</g>
<!-- Node1&#45;&gt;Node4 -->
<g id="edge3_Node000001_Node000004" class="edge">
<title>Node1&#45;&gt;Node4</title>
<g id="a_edge3_Node000001_Node000004"><a xlink:title=" ">
<path fill="none" stroke="#63b8ff" d="M41.27,-104.22C56.52,-106.32 78.45,-109.34 99.29,-112.21"/>
<polygon fill="#63b8ff" stroke="#63b8ff" points="99.02,-115.71 109.4,-113.6 99.97,-108.77 99.02,-115.71"/>
</a>
</g>
</g>
<!-- Node5 -->
<g id="Node000005" class="node">
<title>Node5</title>
<g id="a_Node000005"><a xlink:href="classZmogus.html#a004b8eb8a80b2648e45026802b416cfd" target="_top" xlink:title=" ">
<polygon fill="white" stroke="#666666" points="219,-93 102,-93 102,-74 219,-74 219,-93"/>
<text text-anchor="middle" x="160.5" y="-81" font-family="Helvetica,sans-Serif" font-size="10.00">Zmogus::getPavarde</text>
</a>
</g>
</g>
<!-- Node1&#45;&gt;Node5 -->
<g id="edge4_Node000001_Node000005" class="edge">
<title>Node1&#45;&gt;Node5</title>
<g id="a_edge4_Node000001_Node000005"><a xlink:title=" ">
<path fill="none" stroke="#63b8ff" d="M41.27,-98.92C54.73,-97.17 73.4,-94.73 91.93,-92.31"/>
<polygon fill="#63b8ff" stroke="#63b8ff" points="92.41,-95.78 101.87,-91.02 91.5,-88.84 92.41,-95.78"/>
</a>
</g>
</g>
<!-- Node6 -->
<g id="Node000006" class="node">
<title>Node6</title>
<g id="a_Node000006"><a xlink:href="classZmogus.html#af00bd4ee050cb93b59de8a48340049d7" target="_top" xlink:title=" ">
<polygon fill="white" stroke="#666666" points="216,-56 105,-56 105,-37 216,-37 216,-56"/>
<text text-anchor="middle" x="160.5" y="-44" font-family="Helvetica,sans-Serif" font-size="10.00">Zmogus::getVardas</text>
</a>
</g>
</g>
<!-- Node1&#45;&gt;Node6 -->
<g id="edge5_Node000001_Node000006" class="edge">
<title>Node1&#45;&gt;Node6</title>
<g id="a_edge5_Node000001_Node000006"><a xlink:title=" ">
<path fill="none" stroke="#63b8ff" d="M33.58,-91.88C44.37,-83.73 60.93,-72.31 77,-65.5 82.86,-63.02 89.1,-60.83 95.42,-58.91"/>
<polygon fill="#63b8ff" stroke="#63b8ff" points="96.7,-62.18 105.38,-56.11 94.81,-55.45 96.7,-62.18"/>
</a>
</g>
</g>
<!-- Node7 -->
<g id="Node000007" class="node">
<title>Node7</title>
<g id="a_Node000007"><a xlink:href="classStudentas.html#a994a9edb8000f03b9fbb7a4f07c7d8d8" target="_top" xlink:title="Apskaičiuoja galutinį įvertinimą (vidurkio ir medianos variantus).">
<polygon fill="white" stroke="#666666" points="244,-19 77,-19 77,0 244,0 244,-19"/>
<text text-anchor="middle" x="160.5" y="-7" font-family="Helvetica,sans-Serif" font-size="10.00">Studentas::suskaiciuotiGalutini</text>
</a>
</g>
</g>
<!-- Node1&#45;&gt;Node7 -->
<g id="edge6_Node000001_Node000007" class="edge">
<title>Node1&#45;&gt;Node7</title>
<g id="a_edge6_Node000001_Node000007"><a xlink:title=" ">
<path fill="none" stroke="#63b8ff" d="M25.97,-91.97C33.91,-76.16 51.99,-44.65 77,-28.5 80.31,-26.36 83.83,-24.46 87.48,-22.78"/>
<polygon fill="#63b8ff" stroke="#63b8ff" points="88.82,-26.01 96.78,-19.01 86.19,-19.52 88.82,-26.01"/>
</a>
</g>
</g>
</g>
</svg>
</svg>

<style type='text/css'>
<![CDATA[
[data-mouse-over-selected='false'] { opacity: 0.7; }
[data-mouse-over-selected='true']  { opacity: 1.0; }
]]>
</style>
<script type="application/ecmascript"><![CDATA[
document.addEventListener('DOMContentLoaded', (event) => {
  highlightEdges();
  highlightAdjacentNodes();
});
]]></script>
</svg>
